<?xml version="1.0" encoding="UTF-8"?>
<svg version="1.1" xmlns="http://www.w3.org/2000/svg" width="358" height="373">
<path d="M0 0 C1.52008491 2.27286119 2.8711532 4.48986529 4.1875 6.875 C4.55552734 7.51308594 4.92355469 8.15117187 5.30273438 8.80859375 C8 13.60262059 8 13.60262059 8 17 C7.31292969 17.15855469 6.62585937 17.31710938 5.91796875 17.48046875 C0.29170402 18.85907369 0.29170402 18.85907369 -4.1875 22.3125 C-5.48853679 26.61592937 -4.38682708 29.83951875 -3 34 C17.03465825 41.43751721 48.51207253 36.16471693 69.70413113 36.16725707 C73.07449694 36.16797463 76.44485886 36.17012181 79.81522369 36.17275429 C91.60500847 36.18195104 103.39478206 36.18609532 115.18457031 36.18530273 C126.13036316 36.18469969 137.07610709 36.19531043 148.02188754 36.2110464 C157.47220042 36.22414303 166.92249731 36.22948592 176.37281919 36.22884732 C181.99499069 36.22859348 187.61711834 36.23138365 193.2392807 36.24202538 C198.51562705 36.25174529 203.79188784 36.25175899 209.0682373 36.24450874 C210.9946429 36.24346857 212.92105396 36.24579178 214.84745026 36.2518692 C225.11135158 36.28213726 234.89794657 36.02399342 245 34 C246.26612917 26.80978486 246.26612917 26.80978486 244 20 C238.85410639 17.65874035 233.67860824 17.57573283 228.125 17.375 C227.24585938 17.33632812 226.36671875 17.29765625 225.4609375 17.2578125 C223.30761207 17.16418966 221.15383586 17.08103541 219 17 C219.64465202 12.66695924 221.18925122 9.13327935 223.0625 5.1875 C223.88427734 3.44533203 223.88427734 3.44533203 224.72265625 1.66796875 C225.14417969 0.78753906 225.56570313 -0.09289062 226 -1 C249.90307217 -1.88348111 249.90307217 -1.88348111 258.875 6.1875 C265.43700102 12.7000387 266.6243283 21.11953602 266.75 29.9375 C266.77819824 30.98494385 266.80639648 32.0323877 266.83544922 33.11157227 C266.91965807 36.74118305 266.96463881 40.3695848 267 44 C267.01129944 45.07749512 267.01129944 45.07749512 267.02282715 46.17675781 C267.07785625 51.59697864 267.10925426 57.01702957 267.125 62.4375 C267.12786011 63.19868134 267.13072021 63.95986267 267.13366699 64.74411011 C267.13940941 66.91149038 267.13756301 69.07871381 267.1328125 71.24609375 C267.13168457 72.50091553 267.13055664 73.7557373 267.12939453 75.04858398 C267 78 267 78 266 80 C265.07673416 80.00364563 264.15346832 80.00729126 263.20222473 80.01104736 C254.44995802 80.04910347 245.69805728 80.106154 236.94604969 80.18390274 C232.44782483 80.22321008 227.94979084 80.25547985 223.45141602 80.27099609 C219.10043593 80.28627405 214.74998117 80.32091328 210.39923668 80.36830902 C208.74933152 80.38300905 207.0993513 80.39103439 205.44938087 80.39188385 C189.97659452 80.40784347 176.42754638 82.57245362 165.00390625 93.99609375 C156.95323221 103.43182999 153.14838068 115.76191502 154 128 C155.437606 136.67436838 158.88970867 145.88970867 165.19140625 152.19140625 C165.78824219 152.78824219 166.38507813 153.38507813 167 154 C167 154.66 167 155.32 167 156 C167.54527344 156.268125 168.09054688 156.53625 168.65234375 156.8125 C170.32590672 157.65902769 171.9833667 158.53771017 173.62890625 159.4375 C174.59699219 159.953125 175.56507813 160.46875 176.5625 161 C177.98755859 161.7734375 177.98755859 161.7734375 179.44140625 162.5625 C189.34893747 166.56466409 199.7679001 166.25722335 210.28125 166.16015625 C211.82775494 166.15387132 213.37426447 166.14863609 214.92077637 166.14439392 C218.9571904 166.13120255 222.99344794 166.10680889 227.02978516 166.07904053 C233.51679185 166.03560361 240.00384429 166.00619783 246.49095154 165.9829998 C248.75057645 165.97279478 251.01007672 165.95575587 253.26965332 165.93800354 C254.64916881 165.93117818 256.02868539 165.92456939 257.40820312 165.91821289 C258.61190552 165.90995987 259.81560791 165.90170685 261.05578613 165.89320374 C264 166 264 166 267 167 C267.12559255 171.44327117 267.21525202 175.88554505 267.2746582 180.33007812 C267.29947579 181.83514444 267.33334251 183.34009462 267.37719727 184.84472656 C267.70414916 196.36881915 267.20494509 208.91453092 259 218 C258.34 218 257.68 218 257 218 C256.74992187 218.60585938 256.49984375 219.21171875 256.2421875 219.8359375 C254.80944656 222.33197046 253.58873932 223.18394493 251.125 224.625 C250.44695312 225.02976562 249.76890625 225.43453125 249.0703125 225.8515625 C248.38710938 226.23054687 247.70390625 226.60953125 247 227 C246.14026833 227.5113147 246.14026833 227.5113147 245.26316833 228.03295898 C232.01989766 233.69174527 212.02943544 230.11153492 197.7420032 230.06846237 C193.93901516 230.05836632 190.13602163 230.05494817 186.33302307 230.05102539 C176.70116862 230.04000896 167.06933837 230.02043456 157.4375 230 C147.00315039 229.9779148 136.56881024 229.95738479 126.13444191 229.94658184 C121.62207005 229.94161992 117.10974366 229.93179344 112.59739006 229.91815186 C109.79241383 229.91067211 106.98744375 229.90737289 104.18245888 229.9051857 C102.27192018 229.90243472 100.3613908 229.89464759 98.4508667 229.88668823 C92.84019488 229.88634359 87.55491383 230.15085853 82 231 C79.98331765 230.91900604 77.96822293 230.77266055 75.9609375 230.56201172 C68.82868968 229.92802 61.78024497 229.92428307 54.625 230.0078125 C53.28467413 230.0173387 51.94434136 230.02593425 50.60400391 230.03366089 C44.98781597 230.0667517 39.37179971 230.10864962 33.75585938 230.17138672 C30.29140667 230.20946571 26.82711939 230.23218102 23.36248779 230.24569321 C21.43898697 230.25742232 19.51560777 230.28554917 17.59228516 230.3142395 C7.39329146 230.34363858 -3.08262073 229.35042756 -12 224 C-12 223.34 -12 222.68 -12 222 C-12.66 222 -13.32 222 -14 222 C-14 221.34 -14 220.68 -14 220 C-15.32 219.34 -16.64 218.68 -18 218 C-18 217.34 -18 216.68 -18 216 C-18.66 216 -19.32 216 -20 216 C-20.63381508 214.67083439 -21.25648484 213.33635391 -21.875 212 C-22.39707031 210.88625 -22.39707031 210.88625 -22.9296875 209.75 C-25.32748995 203.58922289 -26.2502247 197.97972819 -26.26742554 191.38565063 C-26.27195665 190.66308213 -26.27648776 189.94051362 -26.28115618 189.19604909 C-26.29371903 186.79811306 -26.29218514 184.40040651 -26.29052734 182.00244141 C-26.2965176 180.27366345 -26.30332429 178.54488815 -26.31088257 176.81611633 C-26.32849731 172.1363014 -26.33323598 167.45655968 -26.33451414 162.7767148 C-26.33593866 159.84918621 -26.3402139 156.92167607 -26.34550858 153.99415207 C-26.36399259 143.77050348 -26.37218107 133.54690693 -26.37060547 123.32324219 C-26.36940393 113.80969194 -26.39051298 104.29636851 -26.4220928 94.78287566 C-26.44828279 86.60002475 -26.45897165 78.41724781 -26.45769465 70.23435533 C-26.4571859 65.35364125 -26.46282129 60.47312896 -26.48405075 55.59245682 C-26.50347955 51.00077326 -26.503526 46.40948307 -26.48901749 41.81778526 C-26.48693417 40.13846318 -26.4916017 38.45911617 -26.5037384 36.77983665 C-26.57548706 26.15965454 -26.25448766 16.4671732 -19 8 C-18.34 8 -17.68 8 -17 8 C-17 7.34 -17 6.68 -17 6 C-12.28128766 2.2633547 -6.02507606 -2.00835869 0 0 Z " fill="#014695" transform="translate(49,127)"/>
<path d="M0 0 C2.39453125 0.8828125 2.39453125 0.8828125 4.8125 2.125 C9.62000386 4.44676858 14.45678547 6.2800662 19.5 8 C25.2217062 9.96426099 30.69600521 12.14196049 36.16796875 14.734375 C39.51582636 16.23052102 42.93194837 17.49505199 46.375 18.75 C52.84994974 21.11676514 59.17863603 23.75051243 65.5 26.5 C72.26105695 29.43628944 79.03727669 32.21972387 85.95727539 34.75732422 C91.48751136 36.78935463 96.96649382 38.93871866 102.4375 41.125 C103.25420166 41.44992432 104.07090332 41.77484863 104.91235352 42.10961914 C107.28086124 43.05919407 109.64157047 44.02568512 112 45 C112.83418457 45.33870117 113.66836914 45.67740234 114.52783203 46.02636719 C115.33462402 46.36571289 116.14141602 46.70505859 116.97265625 47.0546875 C117.698479 47.35616699 118.42430176 47.65764648 119.17211914 47.96826172 C121 49 121 49 123 52 C123.6320746 56.96364462 123.32005605 61.5048914 121 66 C120.34 66 119.68 66 119 66 C118.89429688 66.6496875 118.78859375 67.299375 118.6796875 67.96875 C117.79169495 71.92899264 116.47829527 75.67776605 115.125 79.5 C114.86847656 80.24636719 114.61195313 80.99273437 114.34765625 81.76171875 C112.91335985 85.83396733 111.25675188 89.30547878 109 93 C108.16035427 95.16953622 107.37192511 97.35932156 106.625 99.5625 C104.37809783 106.17328359 101.70905298 112.56612155 99 119 C98.11824949 121.12826797 97.23803811 123.25717428 96.359375 125.38671875 C95.48958333 127.48697917 94.61979167 129.58723958 93.75 131.6875 C93.30398438 132.76966797 92.85796875 133.85183594 92.3984375 134.96679688 C91.76035156 136.5049707 91.76035156 136.5049707 91.109375 138.07421875 C90.72749023 138.99807373 90.34560547 139.92192871 89.95214844 140.8737793 C89 143 89 143 88 144 C86.52160544 144.04778649 85.04120608 144.03690998 83.5625 144 C78.31529049 143.93942615 73.20604243 144.37970558 68 145 C68.40542271 133.44545285 74.00770071 123.00131507 78.78515625 112.66796875 C82.91164774 103.60560964 86.47207288 94.30772261 90 85 C89.34 85 88.68 85 88 85 C88 84.34 88 83.68 88 83 C87.01 82.67 86.02 82.34 85 82 C85 81.34 85 80.68 85 80 C84.34 80 83.68 80 83 80 C77.89339325 74.57423032 77.21363195 67.23061987 77 60 C77.9609375 56.5625 77.9609375 56.5625 79 54 C77.783125 53.608125 76.56625 53.21625 75.3125 52.8125 C65.22311167 49.44412387 55.37742059 45.37721499 45.51171875 41.41015625 C43.39136025 40.55871085 41.26942118 39.71116651 39.14453125 38.87109375 C33.69794362 36.71779166 28.33276798 34.42164343 23 32 C22.66226563 32.5775 22.32453125 33.155 21.9765625 33.75 C21.30753906 34.86375 21.30753906 34.86375 20.625 36 C19.96371094 37.11375 19.96371094 37.11375 19.2890625 38.25 C18.86367187 38.8275 18.43828125 39.405 18 40 C17.34 40 16.68 40 16 40 C15.80019531 40.61359375 15.60039062 41.2271875 15.39453125 41.859375 C13.37015355 44.96682312 11.20211385 45.24696185 7.6875 46.25 C6.55699219 46.58515625 5.42648438 46.9203125 4.26171875 47.265625 C1 48 1 48 -4 48 C-5.98 52.95 -5.98 52.95 -8 58 C-8.66 58 -9.32 58 -10 58 C-10.08765625 58.94359375 -10.1753125 59.8871875 -10.265625 60.859375 C-10.99325031 65.92222242 -12.88814825 70.51162757 -14.75 75.25 C-15.29515259 76.66140259 -15.29515259 76.66140259 -15.85131836 78.10131836 C-17.62654712 82.65564662 -19.45762183 87.1485916 -21.5625 91.5625 C-24.16866439 97.08549738 -26.07355313 102.80993919 -28.04956055 108.57958984 C-30.66935835 116.17608723 -33.49293135 123.6869099 -36.375 131.1875 C-36.81610107 132.34064697 -37.25720215 133.49379395 -37.71166992 134.68188477 C-38.12392822 135.74979248 -38.53618652 136.8177002 -38.9609375 137.91796875 C-39.33009277 138.87469482 -39.69924805 139.8314209 -40.07958984 140.81713867 C-41 143 -41 143 -42 144 C-48.82506739 145.09688583 -55.18451079 145.00556398 -62 144 C-61.48717107 138.44435326 -60.45874048 134.05529339 -58.25 128.875 C-57.70215502 127.56474977 -57.15663252 126.25352636 -56.61328125 124.94140625 C-56.34080566 124.28543457 -56.06833008 123.62946289 -55.78759766 122.95361328 C-54.57290725 119.94060876 -53.50735415 116.87941522 -52.4375 113.8125 C-50.51695624 108.34728705 -48.3876991 103.01117225 -46.125 97.6796875 C-44.64461502 94.15349273 -43.31656238 90.59062468 -42 87 C-40.58269181 83.14342983 -39.14390237 79.32977628 -37.5 75.5625 C-36.41537198 72.98650845 -35.48443957 70.51839873 -34.62890625 67.87109375 C-33.03001173 63.02773072 -31.26141753 58.2625542 -29.4375 53.5 C-29.0981543 52.60925781 -28.75880859 51.71851563 -28.40917969 50.80078125 C-26.03014041 44.59086775 -23.56402564 38.41936084 -21.06811523 32.25561523 C-17.29556002 22.93777419 -13.59184895 13.72910464 -11 4 C-10.34 4 -9.68 4 -9 4 C-9 3.34 -9 2.68 -9 2 C-5.49678519 -0.33547654 -4.11948655 -0.3411369 0 0 Z " fill="#F9AF24" transform="translate(165,12)"/>
<path d="M0 0 C1.71868415 -0.00321982 3.43736804 -0.00658442 5.15605164 -0.01008606 C8.7372603 -0.01603788 12.31844495 -0.01792974 15.8996582 -0.01733398 C20.48035302 -0.01723187 25.06089456 -0.0309522 29.64155293 -0.04810619 C33.18206996 -0.05923202 36.72254977 -0.06125311 40.2630825 -0.06072426 C41.95231854 -0.06190086 43.64155565 -0.06630462 45.33077431 -0.07405663 C47.68978305 -0.08388085 50.04845628 -0.08097041 52.4074707 -0.07495117 C53.09797516 -0.08057068 53.78847961 -0.08619019 54.49990845 -0.09197998 C59.85228796 -0.05736915 64.21329182 0.64953301 68.41821289 4.08056641 C70.95416642 8.80851397 70.6259068 13.2821316 70.5703125 18.56640625 C70.57176773 19.67472809 70.57322296 20.78304993 70.57472229 21.92495728 C70.57306418 24.26673005 70.56151283 26.60851381 70.54077148 28.95019531 C70.51187811 32.52326108 70.52015351 36.09483695 70.53320312 39.66796875 C70.52696351 41.94662176 70.51857083 44.2252701 70.5078125 46.50390625 C70.51074814 47.56765472 70.51368378 48.6314032 70.51670837 49.72738647 C70.44251927 55.60202101 70.14365342 60.08176483 67.07421875 65.16796875 C62.86875332 68.50888348 58.92069863 68.59142789 53.75488281 68.5402832 C52.92980225 68.54393387 52.10472168 68.54758453 51.25463867 68.55134583 C48.5328295 68.55943685 45.81161862 68.54584862 43.08984375 68.53125 C41.19040935 68.53073102 39.2909744 68.53125018 37.39154053 68.53276062 C33.41035949 68.53267095 29.42938115 68.52225542 25.44824219 68.50415039 C20.36319544 68.48152538 15.27844635 68.48090857 10.19336319 68.48766804 C6.26924022 68.49102272 2.34518416 68.48434874 -1.57892609 68.4745388 C-3.45267638 68.47070769 -5.32643415 68.46952986 -7.20018768 68.47112465 C-9.82988947 68.4714987 -12.45922139 68.45877898 -15.08886719 68.44262695 C-15.85281799 68.44510437 -16.6167688 68.44758179 -17.40386963 68.45013428 C-26.14586533 68.36514735 -33.28407607 66.33617157 -40.92578125 62.16796875 C-40.92578125 61.50796875 -40.92578125 60.84796875 -40.92578125 60.16796875 C-42.24578125 59.50796875 -43.56578125 58.84796875 -44.92578125 58.16796875 C-44.92578125 57.50796875 -44.92578125 56.84796875 -44.92578125 56.16796875 C-45.58578125 56.16796875 -46.24578125 56.16796875 -46.92578125 56.16796875 C-47.91062233 54.42115582 -48.88844312 52.67038365 -49.86328125 50.91796875 C-50.40855469 49.9434375 -50.95382813 48.96890625 -51.515625 47.96484375 C-55.22382373 40.6100784 -55.1189876 31.18282431 -52.80078125 23.35546875 C-50.39088036 17.14226457 -45.97014891 11.49171246 -40.92578125 7.16796875 C-40.26578125 7.16796875 -39.60578125 7.16796875 -38.92578125 7.16796875 C-38.92578125 6.50796875 -38.92578125 5.84796875 -38.92578125 5.16796875 C-37.49755572 4.50187658 -36.0573246 3.86153591 -34.61328125 3.23046875 C-33.81277344 2.87082031 -33.01226562 2.51117188 -32.1875 2.140625 C-21.9529175 -0.91136427 -10.59404605 0.00469438 0 0 Z M-27.92578125 23.16796875 C-27.92578125 23.82796875 -27.92578125 24.48796875 -27.92578125 25.16796875 C-28.91578125 25.49796875 -29.90578125 25.82796875 -30.92578125 26.16796875 C-32.93655528 29.87202617 -33.35130666 32.99781973 -32.92578125 37.16796875 C-31.5265318 40.46898006 -31.5265318 40.46898006 -29.92578125 43.16796875 C-29.26578125 43.16796875 -28.60578125 43.16796875 -27.92578125 43.16796875 C-27.92578125 43.82796875 -27.92578125 44.48796875 -27.92578125 45.16796875 C-24.53173573 47.2375087 -22.44212529 48.17718918 -18.42578125 48.10546875 C-13.71788317 46.84442462 -10.54543406 44.78762156 -7.11328125 41.35546875 C-5.02052205 37.50038601 -4.57214189 33.81828578 -5.48828125 29.54296875 C-7.7643219 25.78255377 -10.97220194 23.14475841 -14.92578125 21.16796875 C-17.00142801 20.97038644 -17.00142801 20.97038644 -19.30078125 20.98046875 C-20.07164062 20.96628906 -20.8425 20.95210937 -21.63671875 20.9375 C-24.14413013 21.18995268 -25.75840027 21.91603408 -27.92578125 23.16796875 Z " fill="#034795" transform="translate(266.92578125,215.83203125)"/>
<path d="M0 0 C1.90838577 1.4887176 2.8371904 2.61576935 3.78125 4.84375 C4.07442611 7.73362883 3.43498823 9.75535712 2.5 12.5 C2.2009375 13.4384375 1.901875 14.376875 1.59375 15.34375 C-0.54340769 18.90567949 -3.401388 20.21370551 -7 22 C-8.10859375 22.63679688 -9.2171875 23.27359375 -10.359375 23.9296875 C-16.6859467 27.55944868 -23.03111312 31.13971631 -29.4453125 34.61328125 C-33.3132015 36.71282345 -37.15692274 38.855468 -41 41 C-40.89300781 41.97839844 -40.78601563 42.95679688 -40.67578125 43.96484375 C-39.35944421 58.35962624 -39.35944421 58.35962624 -43 65 C-43.763125 65.86625 -44.52625 66.7325 -45.3125 67.625 C-47.4005207 69.98320862 -47.4005207 69.98320862 -46.5 73.375 C-44.95032066 77.1200584 -43.03141567 80.50744843 -41 84 C-39.04399575 87.38557944 -37.11094329 90.78333054 -35.1875 94.1875 C-34.67251953 95.07630859 -34.15753906 95.96511719 -33.62695312 96.88085938 C-33.14548828 97.73873047 -32.66402344 98.59660156 -32.16796875 99.48046875 C-31.72735107 100.25285889 -31.2867334 101.02524902 -30.83276367 101.82104492 C-29.86499114 104.35325538 -30.07383835 105.49690847 -31 108 C-37.84739471 109.24687005 -44.30246022 110.37437865 -51 108 C-55.22766805 103.89591621 -57.75981764 98.36932597 -60 93 C-60 92.01 -60 91.02 -60 90 C-60.66 90 -61.32 90 -62 90 C-63.17407021 87.73272667 -64.33939739 85.46165376 -65.5 83.1875 C-65.83386719 82.54490234 -66.16773437 81.90230469 -66.51171875 81.24023438 C-68.00239084 78.30452301 -69 76.33873483 -69 73 C-69.66 73 -70.32 73 -71 73 C-71.67408308 71.73308493 -72.33900497 70.46129251 -73 69.1875 C-73.37125 68.47980469 -73.7425 67.77210937 -74.125 67.04296875 C-75 65 -75 65 -75 62 C-75.66 62 -76.32 62 -77 62 C-84.34736181 50.10427136 -84.34736181 50.10427136 -83 43 C-79.31640814 37.8429714 -73.41370894 35.08438944 -68 32 C-66.78043561 31.28132813 -65.5617292 30.56119889 -64.34375 29.83984375 C-63.0836416 29.10103647 -61.82322686 28.36275142 -60.5625 27.625 C-59.95929932 27.26688232 -59.35609863 26.90876465 -58.73461914 26.53979492 C-55.92772562 24.91679358 -54.30112636 24 -51 24 C-51 23.34 -51 22.68 -51 22 C-49.68 22 -48.36 22 -47 22 C-47 21.34 -47 20.68 -47 20 C-29.33898389 10.0282845 -29.33898389 10.0282845 -22.58203125 6.421875 C-20.76004994 5.4185449 -18.96758949 4.36068303 -17.19921875 3.265625 C-11.41833136 -0.22049796 -6.66012367 -2.56692267 0 0 Z " fill="#F8AF24" transform="translate(125,48)"/>
<path d="M0 0 C9.90858956 6.50828165 17.93132249 15.20569574 20.8515625 26.8671875 C21.34448914 30.03400865 21.39787442 33.07309861 21.390625 36.27734375 C21.39320313 37.4271875 21.39578125 38.57703125 21.3984375 39.76171875 C21.265625 42.52734375 21.265625 42.52734375 20.265625 43.52734375 C18.01224665 43.64811818 15.75503486 43.69764154 13.49853516 43.72021484 C12.79119736 43.72839233 12.08385956 43.73656982 11.35508728 43.74499512 C9.00496276 43.76988939 6.65489876 43.78637451 4.3046875 43.80078125 C3.50397198 43.80610493 2.70325645 43.8114286 1.87827682 43.8169136 C-2.35913385 43.84366169 -6.59651488 43.86303193 -10.83398438 43.87744141 C-15.21824715 43.89410118 -19.60175991 43.93888434 -23.98573875 43.98981285 C-27.35030005 44.02341474 -30.71468175 44.03501097 -34.07939529 44.04066849 C-35.69580447 44.04739977 -37.31220107 44.06267046 -38.92844772 44.0865593 C-41.18909143 44.11806804 -43.44769183 44.11827075 -45.70849609 44.11083984 C-46.99565521 44.1189267 -48.28281433 44.12701355 -49.60897827 44.13534546 C-52.734375 43.52734375 -52.734375 43.52734375 -54.61099243 41.17837524 C-58.31524394 32.43684081 -57.25135336 24.60522636 -53.8046875 15.9375 C-52.8401029 13.76542446 -51.82249135 11.63985793 -50.734375 9.52734375 C-50.074375 9.52734375 -49.414375 9.52734375 -48.734375 9.52734375 C-48.404375 8.53734375 -48.074375 7.54734375 -47.734375 6.52734375 C-47.074375 6.52734375 -46.414375 6.52734375 -45.734375 6.52734375 C-45.734375 5.86734375 -45.734375 5.20734375 -45.734375 4.52734375 C-45.074375 4.52734375 -44.414375 4.52734375 -43.734375 4.52734375 C-43.734375 3.86734375 -43.734375 3.20734375 -43.734375 2.52734375 C-28.96181758 -6.30825206 -15.83324907 -8.52733557 0 0 Z " fill="#FAAF23" transform="translate(194.734375,112.47265625)"/>
<path d="M0 0 C3.62760073 1.64890942 6.08652985 3.47518657 8 7 C8.4133256 10.96792579 8.09678815 13.59271925 6 17 C5.34 17 4.68 17 4 17 C3.7525 17.556875 3.505 18.11375 3.25 18.6875 C1.77075182 21.42410913 0.06532561 23.67650869 -2 26 C-2.66 26 -3.32 26 -4 26 C-4 26.66 -4 27.32 -4 28 C-4.66 28 -5.32 28 -6 28 C-6 28.66 -6 29.32 -6 30 C-12.28451268 30.39901668 -16.33672328 29.82887833 -21.95703125 26.97265625 C-23.96432914 26.01698287 -25.83165213 25.46290573 -28 25 C-26.84685985 21.33091771 -25.37365813 19.19931797 -22.56640625 16.6015625 C-19.68081327 13.65120559 -17.27100972 10.28803376 -14.76953125 7.01171875 C-14.18558594 6.34785156 -13.60164062 5.68398437 -13 5 C-12.34 5 -11.68 5 -11 5 C-11 4.34 -11 3.68 -11 3 C-7.64183379 -0.49249286 -4.67572797 -0.49218189 0 0 Z " fill="#FAB126" transform="translate(208,78)"/>
<path d="M0 0 C-0.66 0 -1.32 0 -2 0 C-2.37511719 0.90878906 -2.37511719 0.90878906 -2.7578125 1.8359375 C-4.19055344 4.33197046 -5.41126068 5.18394493 -7.875 6.625 C-8.55304688 7.02976562 -9.23109375 7.43453125 -9.9296875 7.8515625 C-10.61289062 8.23054688 -11.29609375 8.60953125 -12 9 C-12.8348291 9.51138268 -12.8348291 9.51138268 -13.68652344 10.03309631 C-23.98679214 14.33803198 -39.5459083 12.13360847 -50.625 12.09765625 C-52.35091104 12.09578505 -54.07682261 12.09436448 -55.80273438 12.09336853 C-60.28732844 12.08959852 -64.77188875 12.07981723 -69.25646973 12.06866455 C-73.85587101 12.05832997 -78.45527789 12.05384543 -83.0546875 12.04882812 C-92.03647295 12.03818846 -101.01823364 12.02118069 -110 12 C-110.33 11.34 -110.66 10.68 -111 10 C-106.4981196 9.68927631 -101.99580861 9.38633003 -97.49291992 9.09057617 C-95.96120098 8.9888725 -94.42962146 8.88504579 -92.89819336 8.77905273 C-90.69678431 8.62705918 -88.4949866 8.48271036 -86.29296875 8.33984375 C-85.60849167 8.29093491 -84.92401459 8.24202606 -84.21879578 8.19163513 C-81.11571133 7.99725777 -78.98570878 8.00476374 -76 9 C-73.48671337 9.00440412 -71.00875602 8.95024048 -68.5 8.84375 C-66.96558599 8.78943556 -65.43116172 8.73541006 -63.89672852 8.68164062 C-63.09582794 8.65175049 -62.29492737 8.62186035 -61.46975708 8.59106445 C-37.93944344 7.72345882 -37.93944344 7.72345882 -26.36914062 8.68164062 C-22.6989843 8.98058368 -19.57450519 8.93667188 -16 8 C-16 7.34 -16 6.68 -16 6 C-13.69 6 -11.38 6 -9 6 C-9 4.68 -9 3.36 -9 2 C-3.375 -1.125 -3.375 -1.125 0 0 Z " fill="#144382" transform="translate(308,345)"/>
<path d="M0 0 C0.66 0.33 1.32 0.66 2 1 C1.3125 3.375 1.3125 3.375 0 6 C-2.625 7.3125 -2.625 7.3125 -5 8 C-4.979375 9.134375 -4.95875 10.26875 -4.9375 11.4375 C-5 15 -5 15 -6 16 C-6.09690407 18.12626798 -6.12186822 20.25581819 -6.12025452 22.3842926 C-6.12110894 23.05893317 -6.12196337 23.73357373 -6.12284368 24.42865795 C-6.12450039 26.70580162 -6.11897404 28.9828728 -6.11352539 31.26000977 C-6.11324353 32.88575234 -6.11340122 34.51149505 -6.1139679 36.13723755 C-6.11425593 40.56473413 -6.10835827 44.99220387 -6.10139394 49.41969419 C-6.09516136 54.04150842 -6.09455668 58.6633232 -6.09336853 63.28514099 C-6.09025493 72.04348237 -6.08204115 80.80181133 -6.07201904 89.56014723 C-6.0608588 99.52854013 -6.05534768 109.49693361 -6.05032361 119.4653312 C-6.03985856 139.97689441 -6.02225857 160.48844642 -6 181 C-6.33 181 -6.66 181 -7 181 C-7 133.81 -7 86.62 -7 38 C-7.66 38 -8.32 38 -9 38 C-9.11783281 34.37528143 -9.18778808 30.75106597 -9.25 27.125 C-9.28351562 26.11179688 -9.31703125 25.09859375 -9.3515625 24.0546875 C-9.44841669 16.50006102 -8.47400196 9.37099819 -3.63085938 3.27734375 C-2.25 1.875 -2.25 1.875 0 0 Z " fill="#07428C" transform="translate(32,134)"/>
<path d="M0 0 C23.90307217 -0.88348111 23.90307217 -0.88348111 32.875 7.1875 C39.64701395 13.90846862 40.62530051 22.55044028 40.75 31.625 C40.77892334 32.69935303 40.80784668 33.77370605 40.83764648 34.88061523 C41.1029027 45.91737023 41.10216901 56.96103132 41 68 C39.02 68.495 39.02 68.495 37 69 C36.89082108 62.61909868 37.04625692 56.42599675 37.87890625 50.09375 C38.14096602 47.80543716 38.14096602 47.80543716 37 45 C36.9636804 43.23469049 36.98565791 41.46787775 37.04296875 39.703125 C37.06423828 38.6615625 37.08550781 37.62 37.10742188 36.546875 C37.16043572 34.36425616 37.22537164 32.18189149 37.30273438 30 C37.41447222 23.27917535 36.78020268 19.55518979 33 14 C33 13.01 33 12.02 33 11 C31.68 10.34 30.36 9.68 29 9 C29 8.01 29 7.02 29 6 C21.35467573 3.69771485 14.1163645 2.59555875 6.16992188 2.37915039 C4.44306703 2.31805085 2.71983498 2.16711804 1 2 C0.67 1.34 0.34 0.68 0 0 Z " fill="#173D78" transform="translate(275,126)"/>
<path d="M0 0 C4.99786628 0 7.42748562 0.95657101 11.0625 4.4375 C20.48370271 14.663621 23.24610486 23.7285337 23.16796875 37.33984375 C23 40 23 40 22 41 C20.14630389 41.08737645 18.28932459 41.10698153 16.43359375 41.09765625 C15.30888672 41.09443359 14.18417969 41.09121094 13.02539062 41.08789062 C11.84138672 41.07951172 10.65738281 41.07113281 9.4375 41.0625 C8.24962891 41.05798828 7.06175781 41.05347656 5.83789062 41.04882812 C2.89187774 41.03699675 -0.05403681 41.02051287 -3 41 C-3 40.67 -3 40.34 -3 40 C4.92 39.67 12.84 39.34 21 39 C20.34 32.4 19.68 25.8 19 19 C17.35 19 15.7 19 14 19 C12 17 12 17 11.875 13.375 C11.91625 12.26125 11.9575 11.1475 12 10 C10.329375 10.061875 10.329375 10.061875 8.625 10.125 C5 10 5 10 3 8 C3.99 8 4.98 8 6 8 C5.67 6.02 5.34 4.04 5 2 C3.35 2 1.7 2 0 2 C0 1.34 0 0.68 0 0 Z " fill="#E7A930" transform="translate(193,115)"/>
<path d="M0 0 C0.33 0.99 0.66 1.98 1 3 C1.66 3.33 2.32 3.66 3 4 C2.360625 4.886875 1.72125 5.77375 1.0625 6.6875 C-0.80829757 9.69211428 -1.59423966 11.5510371 -2 15 C-2.66 15 -3.32 15 -4 15 C-4 16.98 -4 18.96 -4 21 C-4.66 21 -5.32 21 -6 21 C-6 21.66 -6 22.32 -6 23 C-4.02 22.01 -2.04 21.02 0 20 C0.165 20.639375 0.33 21.27875 0.5 21.9375 C1.781786 24.16119241 1.781786 24.16119241 3.9140625 24.48828125 C5.93575155 24.7275978 7.96841939 24.86893028 10 25 C10.33 23.35 10.66 21.7 11 20 C11.66 20 12.32 20 13 20 C13 18.68 13 17.36 13 16 C13.66 16 14.32 16 15 16 C14.5247412 17.64696604 14.04468109 19.29254728 13.5625 20.9375 C13.29566406 21.85402344 13.02882812 22.77054688 12.75390625 23.71484375 C12 26 12 26 11 27 C9.52160544 27.04778649 8.04120608 27.03690998 6.5625 27 C1.31529049 26.93942615 -3.79395757 27.37970558 -9 28 C-8.64932378 18.0057277 -4.58496242 8.79338203 0 0 Z " fill="#F2AE32" transform="translate(242,129)"/>
<path d="M0 0 C4.15702064 2.07851032 5.90018307 8.00141244 8 12 C8.639375 13.134375 9.27875 14.26875 9.9375 15.4375 C11 18 11 18 10.6875 20.375 C10.3471875 21.179375 10.3471875 21.179375 10 22 C3.25570622 23.28511695 -3.31528653 23.84678035 -10 22 C-12.99819371 19.06866138 -14.76697672 16.00565942 -16 12 C-15.67 11.34 -15.34 10.68 -15 10 C-11 14.625 -11 14.625 -11 18 C-10.34 18 -9.68 18 -9 18 C-8.67 18.66 -8.34 19.32 -8 20 C-4.7 20 -1.4 20 2 20 C1.67 18.68 1.34 17.36 1 16 C1.375 13.5 1.375 13.5 2 11 C2.185625 10.236875 2.37125 9.47375 2.5625 8.6875 C2.706875 8.130625 2.85125 7.57375 3 7 C2.01 6.67 1.02 6.34 0 6 C0 4.02 0 2.04 0 0 Z " fill="#F8B02D" transform="translate(84,134)"/>
<path d="M0 0 C1.32 0.33 2.64 0.66 4 1 C2.68 3.97 1.36 6.94 0 10 C-0.66 10 -1.32 10 -2 10 C-2.54199953 12.59217167 -3.02351567 15.16623946 -3.39453125 17.7890625 C-3.53246094 18.72492188 -3.67039062 19.66078125 -3.8125 20.625 C-3.94269531 21.56601563 -4.07289062 22.50703125 -4.20703125 23.4765625 C-5 26 -5 26 -6.99609375 27.41796875 C-9.96392792 29.76099572 -9.81404277 32.0181933 -10.25 35.6875 C-10.39953125 36.86699219 -10.5490625 38.04648438 -10.703125 39.26171875 C-10.80109375 40.16535156 -10.8990625 41.06898438 -11 42 C-12.485 42.495 -12.485 42.495 -14 43 C-13.67 45.64 -13.34 48.28 -13 51 C-15.475 51.495 -15.475 51.495 -18 52 C-17.40812198 46.60968229 -16.11144729 41.89503517 -14.25 36.8125 C-13.98340576 36.0707251 -13.71681152 35.3289502 -13.44213867 34.56469727 C-11.48111842 29.16678931 -9.34531796 23.85620786 -7.08984375 18.57421875 C-5.6131485 15.08625399 -4.30393723 11.55619246 -3 8 C-2.43863416 6.49957518 -1.87614904 4.99956861 -1.3125 3.5 C-0.879375 2.345 -0.44625 1.19 0 0 Z " fill="#CB9D33" transform="translate(126,91)"/>
<path d="M0 0 C0.33 0.99 0.66 1.98 1 3 C2.22976563 2.97679687 3.45953125 2.95359375 4.7265625 2.9296875 C6.3593689 2.91091961 7.9921819 2.89272051 9.625 2.875 C10.43324219 2.85824219 11.24148438 2.84148437 12.07421875 2.82421875 C16.74252711 2.78626502 20.6941133 2.95470382 25 5 C26.375 8.125 26.375 8.125 27 11 C27.66 11 28.32 11 29 11 C29.05406122 12.93719378 29.09282025 14.87481921 29.125 16.8125 C29.14820313 17.89144531 29.17140625 18.97039062 29.1953125 20.08203125 C29 23 29 23 27 26 C23.9609375 26.29296875 23.9609375 26.29296875 20.375 26.1875 C19.18648438 26.16042969 17.99796875 26.13335937 16.7734375 26.10546875 C15.85820312 26.07066406 14.94296875 26.03585938 14 26 C13.67 25.34 13.34 24.68 13 24 C16.96 23.34 20.92 22.68 25 22 C26.26612917 14.80978486 26.26612917 14.80978486 24 8 C18.85410639 5.65874035 13.67860824 5.57573283 8.125 5.375 C6.80628906 5.31699219 6.80628906 5.31699219 5.4609375 5.2578125 C3.30761207 5.16418966 1.15383586 5.08103541 -1 5 C-0.67 3.35 -0.34 1.7 0 0 Z " fill="#123A73" transform="translate(269,139)"/>
<path d="M0 0 C0.99 0 1.98 0 3 0 C4.125 7.75 4.125 7.75 3 10 C-12.51 10 -28.02 10 -44 10 C-44 9.67 -44 9.34 -44 9 C-29.61489761 7.4338212 -15.46795482 6.73371862 -1 7 C-1.20625 6.21625 -1.4125 5.4325 -1.625 4.625 C-1.74875 3.75875 -1.8725 2.8925 -2 2 C-1.34 1.34 -0.68 0.68 0 0 Z " fill="#0A3974" transform="translate(312,197)"/>
<path d="M0 0 C0.33 1.32 0.66 2.64 1 4 C3.475 4.495 3.475 4.495 6 5 C6.33 6.65 6.66 8.3 7 10 C6.45472656 9.566875 5.90945313 9.13375 5.34765625 8.6875 C0.48130217 5.09388468 -2.86029012 3.32493547 -8.95703125 3.69140625 C-11.01720105 4.00259825 -12.9903067 4.45354407 -15 5 C-15 5.66 -15 6.32 -15 7 C-15.48210937 7.4434375 -15.96421875 7.886875 -16.4609375 8.34375 C-18.40953544 10.44071834 -18.44634881 11.67919168 -18.625 14.5 C-18.82114148 17.30202115 -19.09958182 19.29874545 -20 22 C-20.66 22 -21.32 22 -22 22 C-22.05441656 20.10448978 -22.09298035 18.2085208 -22.125 16.3125 C-22.14820313 15.25675781 -22.17140625 14.20101562 -22.1953125 13.11328125 C-21.94673111 9.15089386 -21.27001567 6.31886242 -18.4765625 3.41796875 C-12.44831099 -0.58814776 -7.08581591 -0.53143619 0 0 Z " fill="#17588D" transform="translate(254,234)"/>
<path d="M0 0 C0.33 0 0.66 0 1 0 C1.39234694 1.89231945 1.76318316 3.78910657 2.125 5.6875 C2.33382812 6.74324219 2.54265625 7.79898438 2.7578125 8.88671875 C3.01897936 12.24397659 2.49130948 14.0229044 1 17 C0.01 16.67 -0.98 16.34 -2 16 C-5.17692157 21.24882694 -5.65697965 26.01488629 -6 32 C-6.33 31.34 -6.66 30.68 -7 30 C-7.99 30 -8.98 30 -10 30 C-10 30.99 -10 31.98 -10 33 C-10.66 32.67 -11.32 32.34 -12 32 C-9.43353417 24.70029802 -6.83328951 17.43315799 -3.9140625 10.265625 C-2.54320953 6.86778432 -1.27249391 3.43573355 0 0 Z " fill="#FAB430" transform="translate(143,46)"/>
<path d="M0 0 C0.99112793 -0.00307663 1.98225586 -0.00615326 3.00341797 -0.00932312 C4.60660889 0.00145515 4.60660889 0.00145515 6.2421875 0.01245117 C7.88985107 0.0131385 7.88985107 0.0131385 9.57080078 0.01383972 C11.89421671 0.01686199 14.21763062 0.02474753 16.54101562 0.03710938 C20.10293739 0.05534696 23.66459895 0.05761917 27.2265625 0.05737305 C29.48177309 0.062289 31.73698191 0.06811765 33.9921875 0.07495117 C35.06098145 0.076064 36.12977539 0.07717682 37.23095703 0.07832336 C38.22208496 0.08470322 39.21321289 0.09108307 40.234375 0.09765625 C41.10690918 0.10146805 41.97944336 0.10527985 42.87841797 0.10920715 C45.1171875 0.24291992 45.1171875 0.24291992 48.1171875 1.24291992 C47.7871875 2.23291992 47.4571875 3.22291992 47.1171875 4.24291992 C46.4571875 4.24291992 45.7971875 4.24291992 45.1171875 4.24291992 C45.1171875 3.58291992 45.1171875 2.92291992 45.1171875 2.24291992 C44.39477371 2.40747177 43.67235992 2.57202362 42.92805481 2.74156189 C40.23282504 3.22229433 37.87377426 3.32948795 35.14331055 3.26464844 C34.18269211 3.24455215 33.22207367 3.22445587 32.23234558 3.20375061 C30.69614311 3.16319801 30.69614311 3.16319801 29.12890625 3.12182617 C28.07057083 3.09821518 27.01223541 3.07460419 25.92182922 3.05027771 C22.54930516 2.97384767 19.17702276 2.88973431 15.8046875 2.80541992 C13.51498569 2.75217857 11.22527217 2.69943831 8.93554688 2.6472168 C3.32927833 2.51826052 -2.27681145 2.38299941 -7.8828125 2.24291992 C-4.63469252 0.0775066 -3.74924641 -0.00612325 0 0 Z " fill="#1E4173" transform="translate(267.8828125,292.757080078125)"/>
<path d="M0 0 C6.9446161 0.23541072 6.9446161 0.23541072 9.64453125 2.19140625 C11.95230019 4.73859791 12.96236017 6.73114407 13.4375 10.125 C13.02250731 12.85209482 12.43645437 14.66576165 11 17 C10.34 17 9.68 17 9 17 C9 16.34 9 15.68 9 15 C7.35 14.67 5.7 14.34 4 14 C4.66 13.01 5.32 12.02 6 11 C6.99 11 7.98 11 9 11 C9 9.02 9 7.04 9 5 C7.02 5.66 5.04 6.32 3 7 C2.67 6.34 2.34 5.68 2 5 C1.01 4.34 0.02 3.68 -1 3 C-0.67 2.01 -0.34 1.02 0 0 Z " fill="#D5A230" transform="translate(203,78)"/>
<path d="M0 0 C-0.33 0.99 -0.66 1.98 -1 3 C-5.45597912 3.93264679 -9.30698445 3.96291452 -13.84375 3.53125 C-21.17767388 2.92278994 -28.45751034 2.88725572 -35.8125 2.9375 C-37.72772461 2.94426758 -37.72772461 2.94426758 -39.68164062 2.95117188 C-42.78781211 2.96280548 -45.89387908 2.97914925 -49 3 C-49 2.67 -49 2.34 -49 2 C-41.78453828 0.93336653 -34.59720487 0.67424321 -27.3125 0.4375 C-26.12205078 0.39431641 -24.93160156 0.35113281 -23.70507812 0.30664062 C-15.80046763 0.03584646 -7.90892531 -0.0519727 0 0 Z " fill="#355489" transform="translate(139,354)"/>
<path d="M0 0 C1.2478125 -0.01417969 2.495625 -0.02835938 3.78125 -0.04296875 C7.71826537 0.20102695 10.77031003 0.97150572 14.5 2.1875 C14.5 2.5175 14.5 2.8475 14.5 3.1875 C13.79504395 3.20208252 13.09008789 3.21666504 12.36376953 3.23168945 C9.11700886 3.30694197 5.87119124 3.40334374 2.625 3.5 C1.51640625 3.52255859 0.4078125 3.54511719 -0.734375 3.56835938 C-7.04152405 3.7724142 -12.45108361 4.44712292 -18.38330078 6.65307617 C-20.80098479 7.26349258 -22.16621039 6.98273435 -24.5 6.1875 C-16.68606873 0.97821249 -9.30295761 0.04805247 0 0 Z " fill="#0E3A74" transform="translate(249.5,203.8125)"/>
<path d="M0 0 C-5.28 2.97 -10.56 5.94 -16 9 C-15.79375 11.31 -15.5875 13.62 -15.375 16 C-14.92716682 21.74978052 -15.10067465 26.52547399 -17 32 C-17.66 32 -18.32 32 -19 32 C-18.855625 30.906875 -18.71125 29.81375 -18.5625 28.6875 C-17.90689307 23.470742 -17.45251777 18.23765253 -17 13 C-17.66 13 -18.32 13 -19 13 C-20.08174162 9.63458162 -19.92538169 8.70152678 -19 5 C-15.04 4.01 -11.08 3.02 -7 2 C-7 1.34 -7 0.68 -7 0 C-4 -1 -4 -1 0 0 Z " fill="#CEA23B" transform="translate(100,80)"/>
<path d="M0 0 C0 0.99 0 1.98 0 3 C-0.99 3 -1.98 3 -3 3 C-3 3.66 -3 4.32 -3 5 C-3.99 5.495 -3.99 5.495 -5 6 C-4.67 6.66 -4.34 7.32 -4 8 C-7.63 8.33 -11.26 8.66 -15 9 C-15.33 10.32 -15.66 11.64 -16 13 C-17.84765625 14.484375 -17.84765625 14.484375 -20.0625 15.75 C-20.79597656 16.17796875 -21.52945313 16.6059375 -22.28515625 17.046875 C-22.85105469 17.36140625 -23.41695312 17.6759375 -24 18 C-24.66 17.01 -25.32 16.02 -26 15 C-23.09117267 11.83673624 -20.21520301 9.78533387 -16.4375 7.75 C-15.01244141 6.96882813 -15.01244141 6.96882813 -13.55859375 6.171875 C-11 5 -11 5 -8 5 C-8 4.34 -8 3.68 -8 3 C-6.68 3 -5.36 3 -4 3 C-4 2.34 -4 1.68 -4 1 C-2 0 -2 0 0 0 Z " fill="#E0A932" transform="translate(82,67)"/>
<path d="M0 0 C2 1 2 1 3 3 C1.68 3 0.36 3 -1 3 C-1 3.99 -1 4.98 -1 6 C-0.34 6.33 0.32 6.66 1 7 C1.33 7.99 1.66 8.98 2 10 C1.34 10 0.68 10 0 10 C-0.33 10.66 -0.66 11.32 -1 12 C-1.33 12.66 -1.66 13.32 -2 14 C-2 15.32 -2 16.64 -2 18 C-1.34 18 -0.68 18 0 18 C0 18.66 0 19.32 0 20 C0.66 20 1.32 20 2 20 C1.67 21.65 1.34 23.3 1 25 C-2.68955489 20.38805639 -6.17561337 15.90587976 -6.5625 9.875 C-5.88935847 5.23780276 -4.58757286 3.88755864 -1 1 C-0.67 0.67 -0.34 0.34 0 0 Z " fill="#D99F32" transform="translate(48,85)"/>
<path d="M0 0 C-0.66 0 -1.32 0 -2 0 C-2.37511719 0.90878906 -2.37511719 0.90878906 -2.7578125 1.8359375 C-4.19055344 4.33197046 -5.41126068 5.18394493 -7.875 6.625 C-8.55304688 7.02976562 -9.23109375 7.43453125 -9.9296875 7.8515625 C-10.61289062 8.23054688 -11.29609375 8.60953125 -12 9 C-12.58523438 9.36609375 -13.17046875 9.7321875 -13.7734375 10.109375 C-17.02402854 11.40961142 -20.29355696 11.47080923 -23.75 11.625 C-24.42804688 11.66367187 -25.10609375 11.70234375 -25.8046875 11.7421875 C-30.54053009 11.99428558 -35.25799719 12.03189688 -40 12 C-40 11.34 -40 10.68 -40 10 C-38.02966797 9.90912109 -38.02966797 9.90912109 -36.01953125 9.81640625 C-34.28384459 9.73196744 -32.54816802 9.64732112 -30.8125 9.5625 C-29.94818359 9.52318359 -29.08386719 9.48386719 -28.19335938 9.44335938 C-24.04085878 9.23652984 -20.05462138 8.99896469 -16 8 C-16 7.34 -16 6.68 -16 6 C-13.69 6 -11.38 6 -9 6 C-9 4.68 -9 3.36 -9 2 C-3.375 -1.125 -3.375 -1.125 0 0 Z " fill="#284E81" transform="translate(308,345)"/>
<path d="M0 0 C0.66 0 1.32 0 2 0 C1.3996244 4.72343697 0.02469336 8.82741619 -1.8125 13.1875 C-2.35426275 14.50463411 -2.89461572 15.82234892 -3.43359375 17.140625 C-3.83167236 18.11225586 -3.83167236 18.11225586 -4.23779297 19.10351562 C-5.94710902 23.35654799 -7.47280911 27.67894812 -9 32 C-9.33 32 -9.66 32 -10 32 C-10.18108819 27.38225105 -9.81101416 24.22569972 -8 20 C-8.33 19.34 -8.66 18.68 -9 18 C-8.34 17.34 -7.68 16.68 -7 16 C-6.19335496 13.49940039 -6 11.66053211 -6 9 C-5 7 -5 7 -2 6 C-0.77479736 2.99152582 -0.77479736 2.99152582 0 0 Z " fill="#D29B31" transform="translate(148,84)"/>
<path d="M0 0 C0.69480469 -0.00773438 1.38960938 -0.01546875 2.10546875 -0.0234375 C7.8521798 -0.00179264 12.19444208 0.45048988 16.484375 4.44921875 C18.51352168 7.91326202 18.53596157 10.07870121 18.375 14.0625 C18.33890625 15.22394531 18.3028125 16.38539063 18.265625 17.58203125 C18.19601562 18.90267578 18.19601562 18.90267578 18.125 20.25 C17.465 19.92 16.805 19.59 16.125 19.25 C15.78125 16.6328125 15.78125 16.6328125 15.625 13.375 C15.41843551 8.50393659 15.41843551 8.50393659 13.125 4.25 C10.51758813 3.64716192 10.51758813 3.64716192 7.4609375 3.51953125 C6.33945312 3.43896484 5.21796875 3.35839844 4.0625 3.27539062 C2.886875 3.20513672 1.71125 3.13488281 0.5 3.0625 C-0.68335938 2.98064453 -1.86671875 2.89878906 -3.0859375 2.81445312 C-6.0150168 2.61366946 -8.94434939 2.42609195 -11.875 2.25 C-7.91358785 0.04909405 -4.45048541 -0.04899617 0 0 Z " fill="#1C3C74" transform="translate(318.875,215.75)"/>
<path d="M0 0 C0.33 0.99 0.66 1.98 1 3 C-1 6 -1 6 -3 6.9375 C-5.45528927 8.24187242 -5.98650919 9.46627297 -7 12 C-7.66 12 -8.32 12 -9 12 C-9.0825 12.61875 -9.165 13.2375 -9.25 13.875 C-10 16 -10 16 -12.0625 17.25 C-12.701875 17.4975 -13.34125 17.745 -14 18 C-14 20.31 -14 22.62 -14 25 C-15.98 24.67 -17.96 24.34 -20 24 C-18.84685985 20.33091771 -17.37365813 18.19931797 -14.56640625 15.6015625 C-11.68081327 12.65120559 -9.27100972 9.28803376 -6.76953125 6.01171875 C-6.18558594 5.34785156 -5.60164062 4.68398437 -5 4 C-4.34 4 -3.68 4 -3 4 C-3 3.34 -3 2.68 -3 2 C-2.01 1.34 -1.02 0.68 0 0 Z " fill="#D9B03B" transform="translate(200,79)"/>
<path d="M0 0 C0.66 0 1.32 0 2 0 C1.91621094 1.21558594 1.83242187 2.43117187 1.74609375 3.68359375 C1.64295297 5.26821121 1.54010339 6.85284765 1.4375 8.4375 C1.38142578 9.23994141 1.32535156 10.04238281 1.26757812 10.86914062 C1.1383705 12.91062111 1.0648727 14.95546369 1 17 C1.33 17.33 1.66 17.66 2 18 C2.14115161 20.67058851 2.04247107 23.32432238 2 26 C2.99 26.33 3.98 26.66 5 27 C6.1875 30.5625 6.1875 30.5625 7 34 C6.34 34 5.68 34 5 34 C4.01515892 32.25318707 3.03733813 30.5024149 2.0625 28.75 C1.51722656 27.77546875 0.97195312 26.8009375 0.41015625 25.796875 C-1.87146263 21.27155889 -2.15798954 17.6889944 -2.1875 12.625 C-2.20167969 11.52414063 -2.21585938 10.42328125 -2.23046875 9.2890625 C-1.99195913 5.88524724 -1.21372666 3.17583814 0 0 Z " fill="#244F84" transform="translate(215,238)"/>
<path d="M0 0 C12.54 0 25.08 0 38 0 C38 0.66 38 1.32 38 2 C34.2964299 2.85519264 30.86805619 3.1286068 27.0703125 3.1328125 C25.94496094 3.13410156 24.81960938 3.13539063 23.66015625 3.13671875 C22.49355469 3.13285156 21.32695312 3.12898437 20.125 3.125 C18.96613281 3.12886719 17.80726563 3.13273438 16.61328125 3.13671875 C10.97256507 3.13027222 5.55324412 3.01998361 0 2 C0 1.34 0 0.68 0 0 Z " fill="#1A3F78" transform="translate(250,216)"/>
<path d="M0 0 C1.87890625 1.63671875 1.87890625 1.63671875 3 3 C-0.39827913 3.32886572 -2.72173774 2.76117311 -5.8125 1.5 C-11.031048 -0.39845655 -16.03125921 -0.19752315 -21.50317383 0.0234375 C-25.28666852 0.14780131 -26.75231927 0.16512049 -30 -2 C-19.57159908 -5.62726989 -10.14114772 -4.25273937 0 0 Z " fill="#BD9334" transform="translate(192,111)"/>
<path d="M0 0 C1.32 0 2.64 0 4 0 C3.98839844 0.78503906 3.97679687 1.57007812 3.96484375 2.37890625 C3.44833795 13.14139954 3.44833795 13.14139954 7 23 C8.65893182 24.34294481 10.32476605 25.67744688 12 27 C12 27.66 12 28.32 12 29 C8.42698229 28.18795052 6.36086606 27.36086606 3.75 24.75 C0.70351233 19.57865119 0.17384822 12.88409362 0 7 C0.9609375 3.5625 0.9609375 3.5625 2 1 C1.34 0.67 0.68 0.34 0 0 Z " fill="#D39D3C" transform="translate(242,65)"/>
<path d="M0 0 C0.66 0.33 1.32 0.66 2 1 C1.3125 3.375 1.3125 3.375 0 6 C-2.625 7.3125 -2.625 7.3125 -5 8 C-4.979375 9.134375 -4.95875 10.26875 -4.9375 11.4375 C-5 15 -5 15 -6 16 C-6.28659671 19.55743849 -6.4490807 23.11499153 -6.62109375 26.6796875 C-7 30 -7 30 -9 33 C-9.86200138 11.01896488 -9.86200138 11.01896488 -3.62109375 3.29296875 C-2.25 1.875 -2.25 1.875 0 0 Z " fill="#234E80" transform="translate(32,134)"/>
<path d="M0 0 C3.02861743 2.20263086 3.85556883 4.8951402 4.65625 8.46484375 C5.35311042 13.60418934 5.32649193 18.82927902 5 24 C4 25 4 25 1.59155273 25.11352539 C0.54942627 25.10828857 -0.4927002 25.10305176 -1.56640625 25.09765625 C-2.69111328 25.09443359 -3.81582031 25.09121094 -4.97460938 25.08789062 C-6.15861328 25.07951172 -7.34261719 25.07113281 -8.5625 25.0625 C-9.75037109 25.05798828 -10.93824219 25.05347656 -12.16210938 25.04882812 C-15.10812226 25.03699675 -18.05403681 25.02051287 -21 25 C-21 24.67 -21 24.34 -21 24 C-13.08 23.67 -5.16 23.34 3 23 C2.5359375 19.2565625 2.5359375 19.2565625 2.0625 15.4375 C1.91953491 14.28012329 1.91953491 14.28012329 1.77368164 13.09936523 C1.22909467 8.72538986 0.63618715 4.36160741 0 0 Z " fill="#A07B32" transform="translate(211,131)"/>
<path d="M0 0 C0.33 0.99 0.66 1.98 1 3 C-2.87625593 7.33807549 -6.76959478 9.7122252 -12 12.1875 C-12.69867188 12.52974609 -13.39734375 12.87199219 -14.1171875 13.22460938 C-17.69402384 14.96241194 -21.28110842 16.58362528 -25 18 C-25 17.01 -25 16.02 -25 15 C-23.68 15 -22.36 15 -21 15 C-21.495 14.54625 -21.99 14.0925 -22.5 13.625 C-24 12 -24 12 -24 10 C-21.83125748 10.50603992 -20.00032373 10.99983813 -18 12 C-18 11.34 -18 10.68 -18 10 C-17.195625 9.87625 -16.39125 9.7525 -15.5625 9.625 C-14.716875 9.41875 -13.87125 9.2125 -13 9 C-12.67 8.34 -12.34 7.68 -12 7 C-9.69 7 -7.38 7 -5 7 C-5 6.34 -5 5.68 -5 5 C-4.01 5 -3.02 5 -2 5 C-2 4.01 -2 3.02 -2 2 C-1.34 2 -0.68 2 0 2 C0 1.34 0 0.68 0 0 Z " fill="#D49D32" transform="translate(125,61)"/>
<path d="M0 0 C0.33 0 0.66 0 1 0 C1.33 2.97 1.66 5.94 2 9 C1.34 9 0.68 9 0 9 C0.33 10.98 0.66 12.96 1 15 C0.360625 15.2475 -0.27875 15.495 -0.9375 15.75 C-3.19635114 16.78813195 -3.19635114 16.78813195 -3.5 19 C-3.665 19.66 -3.83 20.32 -4 21 C-6.03125 22.125 -6.03125 22.125 -8 23 C-5.81659819 15.13620323 -3.00714974 7.58324716 0 0 Z " fill="#E1A930" transform="translate(152,23)"/>
<path d="M0 0 C0.99 0 1.98 0 3 0 C3.33 1.98 3.66 3.96 4 6 C4.58491211 5.98952637 5.16982422 5.97905273 5.77246094 5.96826172 C8.43159663 5.92659736 11.09066353 5.90064099 13.75 5.875 C14.67039063 5.85824219 15.59078125 5.84148437 16.5390625 5.82421875 C17.87324219 5.81455078 17.87324219 5.81455078 19.234375 5.8046875 C20.05131836 5.79421387 20.86826172 5.78374023 21.70996094 5.77294922 C24.21887518 6.02170084 25.83395625 6.74299871 28 8 C23.89620302 8.14489234 19.79306033 8.23393542 15.6875 8.3125 C14.52025391 8.35439453 13.35300781 8.39628906 12.15039062 8.43945312 C11.03212891 8.45556641 9.91386719 8.47167969 8.76171875 8.48828125 C7.2142395 8.52755737 7.2142395 8.52755737 5.63549805 8.56762695 C3 8 3 8 1.13989258 5.65698242 C0 3 0 3 0 0 Z " fill="#BA8D33" transform="translate(139,148)"/>
<path d="M0 0 C14.78132118 5.18678815 14.78132118 5.18678815 21 8 C19.4453125 9.11328125 19.4453125 9.11328125 17 10 C13.6171875 9.35546875 13.6171875 9.35546875 9.875 8.1875 C8.01488281 7.62095703 8.01488281 7.62095703 6.1171875 7.04296875 C3 6 3 6 1 5 C0.375 2.4375 0.375 2.4375 0 0 Z " fill="#D09D35" transform="translate(166,13)"/>
<path d="M0 0 C0.33 0.99 0.66 1.98 1 3 C1.66 3 2.32 3 3 3 C3.66 5.97 4.32 8.94 5 12 C5.66 12 6.32 12 7 12 C7 13.98 7 15.96 7 18 C7.61875 18.226875 8.2375 18.45375 8.875 18.6875 C11.61410209 20.37929835 12.05024472 21.99244161 13 25 C12.34 25 11.68 25 11 25 C11 24.34 11 23.68 11 23 C9.68 22.34 8.36 21.68 7 21 C7 20.34 7 19.68 7 19 C6.34 19 5.68 19 5 19 C1.71125344 12.6672508 0.29754029 7.12608999 0 0 Z " fill="#154078" transform="translate(24,324)"/>
<path d="M0 0 C0.66 0.33 1.32 0.66 2 1 C1.62746094 1.51949219 1.25492188 2.03898437 0.87109375 2.57421875 C-2.22692162 6.89542206 -2.22692162 6.89542206 -2.8125 12 C-2.544375 12.66 -2.27625 13.32 -2 14 C-2.99 14.33 -3.98 14.66 -5 15 C-5.73323796 17.01508358 -5.73323796 17.01508358 -6 19 C-6.66 19 -7.32 19 -8 19 C-8 21.97 -8 24.94 -8 28 C-8.33 28 -8.66 28 -9 28 C-9.72957987 18.65732449 -7.25677215 11.24509922 -3 3 C-2.34 3 -1.68 3 -1 3 C-0.67 2.01 -0.34 1.02 0 0 Z " fill="#B08E31" transform="translate(147,119)"/>
<path d="M0 0 C0.66 0.33 1.32 0.66 2 1 C1.67 3.64 1.34 6.28 1 9 C0.01 9.33 -0.98 9.66 -2 10 C-1.67 12.64 -1.34 15.28 -1 18 C-2.65 18.33 -4.3 18.66 -6 19 C-5.52877252 12.0886636 -2.79363994 6.27795839 0 0 Z " fill="#DCA93B" transform="translate(114,124)"/>
<path d="M0 0 C0.33 0 0.66 0 1 0 C1.22786458 1.953125 1.45572917 3.90625 1.68359375 5.859375 C1.94928778 7.96701602 1.94928778 7.96701602 2.51367188 9.8359375 C3.04833955 12.21510128 3.11327872 14.32851936 3.09765625 16.765625 C3.09443359 17.65507812 3.09121094 18.54453125 3.08789062 19.4609375 C3.07951172 20.38132813 3.07113281 21.30171875 3.0625 22.25 C3.05798828 23.18585938 3.05347656 24.12171875 3.04882812 25.0859375 C3.03706918 27.39069041 3.02063426 29.69531227 3 32 C2.34 31.67 1.68 31.34 1 31 C1.01160156 30.40832031 1.02320313 29.81664062 1.03515625 29.20703125 C1.04417969 28.41683594 1.05320312 27.62664062 1.0625 26.8125 C1.07990234 25.64654297 1.07990234 25.64654297 1.09765625 24.45703125 C1.07364815 22.01622469 1.07364815 22.01622469 0.5 19.75 C-0.20244786 15.88653675 -0.10518455 12.10462862 -0.0625 8.1875 C-0.05573242 7.00510742 -0.05573242 7.00510742 -0.04882812 5.79882812 C-0.03711312 3.86585239 -0.01917998 1.93291607 0 0 Z " fill="#31538F" transform="translate(334,227)"/>
<path d="M0 0 C0.33 0.99 0.66 1.98 1 3 C-1 6 -1 6 -3.28515625 6.546875 C-9.37400158 6.9921914 -14.95619812 6.89170847 -21 6 C-20.67 4.35 -20.34 2.7 -20 1 C-19.67 1.99 -19.34 2.98 -19 4 C-13.39 4 -7.78 4 -2 4 C-1.67 3.01 -1.34 2.02 -1 1 C-0.67 0.67 -0.34 0.34 0 0 Z " fill="#AD8933" transform="translate(124,150)"/>
<path d="M0 0 C-1.3893605 3.47340125 -2.61245157 4.51794756 -6 6 C-6.66 6.66 -7.32 7.32 -8 8 C-8.66 8.12375 -9.32 8.2475 -10 8.375 C-12.20265017 8.82123176 -12.20265017 8.82123176 -13.25 11.0625 C-13.4975 11.701875 -13.745 12.34125 -14 13 C-14.66 13 -15.32 13 -16 13 C-15.52794881 8.75153925 -13.11122478 6.73180712 -10 4 C-9.34 4 -8.68 4 -8 4 C-8 3.34 -8 2.68 -8 2 C-4.91190305 0.23537317 -3.76687864 0 0 0 Z " fill="#13417B" transform="translate(236,219)"/>
<path d="M0 0 C0.33 0.99 0.66 1.98 1 3 C0.03536157 4.68737977 -0.9723819 6.35021856 -2 8 C-3.36482214 11.6449256 -4.58685456 15.32313955 -5.81640625 19.015625 C-7 22 -7 22 -9 23 C-8.42934122 16.58008874 -6.32655091 10.98410537 -4 5 C-4.66 5 -5.32 5 -6 5 C-6 4.34 -6 3.68 -6 3 C-4.68 3 -3.36 3 -2 3 C-1.67 2.34 -1.34 1.68 -1 1 C-0.67 0.67 -0.34 0.34 0 0 Z " fill="#BC8E30" transform="translate(276,97)"/>
<path d="M0 0 C0.6875 1.8125 0.6875 1.8125 1 4 C0.52433594 4.44730469 0.04867187 4.89460937 -0.44140625 5.35546875 C-2.41934094 7.4424625 -2.44565558 8.66824597 -2.625 11.5 C-2.82114148 14.30202115 -3.09958182 16.29874545 -4 19 C-4.66 19 -5.32 19 -6 19 C-6.05441656 17.10448978 -6.09298035 15.2085208 -6.125 13.3125 C-6.14820313 12.25675781 -6.17140625 11.20101562 -6.1953125 10.11328125 C-5.99623827 6.94003796 -5.44836647 4.81626814 -4 2 C-1.875 0.6875 -1.875 0.6875 0 0 Z " fill="#114179" transform="translate(238,237)"/>
<path d="M0 0 C0.33 0 0.66 0 1 0 C1.33 7.59 1.66 15.18 2 23 C0.68 23.33 -0.64 23.66 -2 24 C-2.13619034 16.3128119 -2.03361631 8.6308957 -1 1 C-0.67 0.67 -0.34 0.34 0 0 Z " fill="#113C79" transform="translate(314,171)"/>
<path d="M0 0 C0.66 0.66 1.32 1.32 2 2 C1.6875 3.6875 1.6875 3.6875 1 6 C0.66073053 8.33247761 0.32759934 10.66585471 0 13 C-0.31966139 14.66934283 -0.64731066 16.3373217 -1 18 C-1.33 17.34 -1.66 16.68 -2 16 C-2.99 16 -3.98 16 -5 16 C-5 16.99 -5 17.98 -5 19 C-5.66 18.67 -6.32 18.34 -7 18 C-6.21149464 15.74884729 -5.41932463 13.49909896 -4.625 11.25 C-4.40328125 10.61578125 -4.1815625 9.9815625 -3.953125 9.328125 C-2.81280698 6.10840352 -1.62529835 3.00756143 0 0 Z " fill="#C2902C" transform="translate(138,60)"/>
<path d="M0 0 C2.5 1.375 2.5 1.375 5 3 C5 3.66 5 4.32 5 5 C7.64 4.67 10.28 4.34 13 4 C13 4.66 13 5.32 13 6 C15.97 6.33 18.94 6.66 22 7 C22 7.66 22 8.32 22 9 C14.18409499 8.69764391 7.08500742 7.46407189 0 4 C-0.33 3.34 -0.66 2.68 -1 2 C-0.67 1.34 -0.34 0.68 0 0 Z " fill="#244B83" transform="translate(39,348)"/>
<path d="M0 0 C0.80244141 0.00966797 1.60488281 0.01933594 2.43164062 0.02929688 C3.26501953 0.05443359 4.09839844 0.07957031 4.95703125 0.10546875 C6.22450195 0.12577148 6.22450195 0.12577148 7.51757812 0.14648438 C9.60183509 0.18181076 11.68576402 0.23561736 13.76953125 0.29296875 C12.16394641 2.21833813 11.29183647 3.20371042 8.77661133 3.63354492 C8.03822021 3.61783447 7.2998291 3.60212402 6.5390625 3.5859375 C5.73662109 3.57626953 4.93417969 3.56660156 4.10742188 3.55664062 C3.27404297 3.53150391 2.44066406 3.50636719 1.58203125 3.48046875 C0.73705078 3.46693359 -0.10792969 3.45339844 -0.97851562 3.43945312 C-3.06277259 3.40412674 -5.14670152 3.35032014 -7.23046875 3.29296875 C-4.91210376 0.51285471 -3.60077825 -0.0766123 0 0 Z " fill="#194C7B" transform="translate(123.23046875,162.70703125)"/>
<path d="M0 0 C0.76441406 0.07605469 1.52882813 0.15210938 2.31640625 0.23046875 C4.82975365 0.92013498 5.81337919 1.80476783 7.4375 3.8125 C8.25 5.8125 8.25 5.8125 8.4375 7.8125 C7.4475 9.2975 7.4475 9.2975 6.4375 10.8125 C6.0353125 9.636875 6.0353125 9.636875 5.625 8.4375 C4.58935568 5.53135077 4.58935568 5.53135077 1.4375 3.8125 C1.4375 3.4825 1.4375 3.1525 1.4375 2.8125 C-1.60636724 2.73023332 -3.63425348 2.83641783 -6.5625 3.8125 C-7.2225 3.1525 -7.8825 2.4925 -8.5625 1.8125 C-5.49109569 0.00044142 -3.53472701 -0.41268386 0 0 Z " fill="#BF9537" transform="translate(120.5625,47.1875)"/>
<path d="M0 0 C1.65 0 3.3 0 5 0 C4.319375 0.53625 3.63875 1.0725 2.9375 1.625 C-2.29301067 5.85392352 -7.31347523 10.17145933 -12 15 C-11.50334288 10.40592168 -11.50334288 10.40592168 -9.0625 8.4375 C-8.381875 7.963125 -7.70125 7.48875 -7 7 C-5.7483533 4.91665365 -5.7483533 4.91665365 -5 3 C-3.68 3 -2.36 3 -1 3 C-0.67 2.01 -0.34 1.02 0 0 Z " fill="#133C71" transform="translate(221,211)"/>
<path d="M0 0 C2.93325018 2.42311971 3.3791378 4.31702134 4 8 C2.96939453 8.29003906 2.96939453 8.29003906 1.91796875 8.5859375 C1.01691406 8.84632813 0.11585937 9.10671875 -0.8125 9.375 C-1.70582031 9.63023437 -2.59914063 9.88546875 -3.51953125 10.1484375 C-6.20467896 10.95266661 -6.20467896 10.95266661 -9 13 C-9 11.68 -9 10.36 -9 9 C-6.03 8.01 -3.06 7.02 0 6 C0 4.02 0 2.04 0 0 Z " fill="#193C72" transform="translate(53,136)"/>
<path d="M0 0 C0 0.99 0 1.98 0 3 C-0.99 3 -1.98 3 -3 3 C-3 3.66 -3 4.32 -3 5 C-3.99 5.495 -3.99 5.495 -5 6 C-4.67 6.66 -4.34 7.32 -4 8 C-9.94 8.495 -9.94 8.495 -16 9 C-11.375 5 -11.375 5 -8 5 C-8 4.34 -8 3.68 -8 3 C-6.68 3 -5.36 3 -4 3 C-4 2.34 -4 1.68 -4 1 C-2 0 -2 0 0 0 Z " fill="#CB9E32" transform="translate(82,67)"/>
<path d="M0 0 C0 4.31618166 -2.13270348 5.92789659 -5 9 C-5.66 9 -6.32 9 -7 9 C-7 9.66 -7 10.32 -7 11 C-7.66 11 -8.32 11 -9 11 C-9 11.66 -9 12.32 -9 13 C-9.99 12.67 -10.98 12.34 -12 12 C-11.67 11.67 -11.34 11.34 -11 11 C-11.66 10.34 -12.32 9.68 -13 9 C-12.34 8.67 -11.68 8.34 -11 8 C-10.01 8.33 -9.02 8.66 -8 9 C-7.67 7.35 -7.34 5.7 -7 4 C-6.01 4.33 -5.02 4.66 -4 5 C-3.71125 4.360625 -3.4225 3.72125 -3.125 3.0625 C-2 1 -2 1 0 0 Z " fill="#C79934" transform="translate(211,95)"/>
<path d="M0 0 C1.32 0.33 2.64 0.66 4 1 C2.625 3.5 2.625 3.5 1 6 C0.34 6 -0.32 6 -1 6 C-1.226875 6.639375 -1.45375 7.27875 -1.6875 7.9375 C-3 10 -3 10 -5.625 10.75 C-6.40875 10.8325 -7.1925 10.915 -8 11 C-8 10.34 -8 9.68 -8 9 C-7.01 8.34 -6.02 7.68 -5 7 C-5.66 7 -6.32 7 -7 7 C-6.34 5.68 -5.68 4.36 -5 3 C-3.35 3.33 -1.7 3.66 0 4 C0 2.68 0 1.36 0 0 Z " fill="#CDA132" transform="translate(182,46)"/>
<path d="M0 0 C0.66 0 1.32 0 2 0 C1.39124245 4.60416626 0.15277044 8.56483324 -1.5625 12.875 C-2.01753906 14.02742188 -2.47257813 15.17984375 -2.94140625 16.3671875 C-3.29074219 17.23601562 -3.64007813 18.10484375 -4 19 C-4.33 19 -4.66 19 -5 19 C-4.88652381 17.02013918 -4.7589065 15.04108402 -4.625 13.0625 C-4.55539063 11.96035156 -4.48578125 10.85820313 -4.4140625 9.72265625 C-4.27742187 8.82417969 -4.14078125 7.92570312 -4 7 C-3.34 6.67 -2.68 6.34 -2 6 C-1.27306096 4.02111039 -0.60183749 2.02045442 0 0 Z " fill="#BE9531" transform="translate(148,84)"/>
<path d="M0 0 C6.85618326 1.92556636 13.43252132 4.2472483 20 7 C20 7.33 20 7.66 20 8 C18.58297487 7.85769192 17.1663904 7.71099254 15.75 7.5625 C14.56664062 7.44068359 14.56664062 7.44068359 13.359375 7.31640625 C11.17635361 7.02365007 9.1226818 6.57935581 7 6 C7 5.34 7 4.68 7 4 C4.03 3.505 4.03 3.505 1 3 C0.67 2.01 0.34 1.02 0 0 Z " fill="#BE9238" transform="translate(252,48)"/>
<path d="M0 0 C0.33 0 0.66 0 1 0 C1 2.64 1 5.28 1 8 C1.66 8.33 2.32 8.66 3 9 C0.69 10.98 -1.62 12.96 -4 15 C-5 13 -5 13 -4.00390625 9.9609375 C-3.52824219 8.77757813 -3.05257812 7.59421875 -2.5625 6.375 C-2.08941406 5.18648438 -1.61632812 3.99796875 -1.12890625 2.7734375 C-0.75636719 1.85820313 -0.38382813 0.94296875 0 0 Z " fill="#C58F31" transform="translate(255,97)"/>
<path d="M0 0 C0.33 0 0.66 0 1 0 C0.855625 1.051875 0.71125 2.10375 0.5625 3.1875 C-0.18383156 9.10484308 -0.57389492 15.05266101 -1 21 C-1.66 21 -2.32 21 -3 21 C-3.41860465 6.8372093 -3.41860465 6.8372093 0 0 Z " fill="#153E76" transform="translate(203,236)"/>
<path d="M0 0 C2.5 2.3125 2.5 2.3125 5 5 C5 5.99 5 6.98 5 8 C5.66 8 6.32 8 7 8 C7.33 8.66 7.66 9.32 8 10 C10.8159849 10.46898963 10.8159849 10.46898963 14.0625 10.625 C15.71958984 10.73714844 15.71958984 10.73714844 17.41015625 10.8515625 C18.26480469 10.90054688 19.11945313 10.94953125 20 11 C20 11.33 20 11.66 20 12 C15.20346347 12.59135382 10.76927966 12.89026554 6 12 C2.94704036 9.09442462 1.36439679 5.96324781 0 2 C0 1.34 0 0.68 0 0 Z " fill="#99732D" transform="translate(68,144)"/>
<path d="M0 0 C0.33 0.99 0.66 1.98 1 3 C-3.20510092 8.0461211 -7.86659159 9.86819397 -14 12 C-13.34 10.35 -12.68 8.7 -12 7 C-9.69 7 -7.38 7 -5 7 C-5 6.34 -5 5.68 -5 5 C-4.01 5 -3.02 5 -2 5 C-2 4.01 -2 3.02 -2 2 C-1.34 2 -0.68 2 0 2 C0 1.34 0 0.68 0 0 Z " fill="#B58C32" transform="translate(125,61)"/>
<path d="M0 0 C0.33 0.99 0.66 1.98 1 3 C1.66 3.66 2.32 4.32 3 5 C0.39417629 5.93065133 -0.64198224 6.14917407 -3.25 5.0625 C-4.11625 4.5365625 -4.11625 4.5365625 -5 4 C-5.66 4.66 -6.32 5.32 -7 6 C-7.33 4.35 -7.66 2.7 -8 1 C-2.25 0 -2.25 0 0 0 Z " fill="#CC982A" transform="translate(193,40)"/>
<path d="M0 0 C2.49609375 -0.3984375 2.49609375 -0.3984375 5.4375 -0.375 C6.40558594 -0.38273438 7.37367188 -0.39046875 8.37109375 -0.3984375 C11 0 11 0 14 3 C8.72 3 3.44 3 -2 3 C-1.34 2.01 -0.68 1.02 0 0 Z " fill="#13417A" transform="translate(243,163)"/>
<path d="M0 0 C1.0725 0.165 2.145 0.33 3.25 0.5 C7.03028752 1.08810915 7.03028752 1.08810915 11 1 C11.33 2.32 11.66 3.64 12 5 C9.5332355 5.88336837 8.36140628 6.1312406 5.859375 5.22265625 C5.16328125 4.83980469 4.4671875 4.45695312 3.75 4.0625 C3.04359375 3.68222656 2.3371875 3.30195312 1.609375 2.91015625 C1.07828125 2.60980469 0.5471875 2.30945312 0 2 C0 1.34 0 0.68 0 0 Z " fill="#CF9D33" transform="translate(201,47)"/>
<path d="M0 0 C0.66 0 1.32 0 2 0 C1.67 4.29 1.34 8.58 1 13 C0.01 13 -0.98 13 -2 13 C-2.19294408 8.17639811 -1.75747614 4.50353262 0 0 Z " fill="#0E3D76" transform="translate(215,238)"/>
<path d="M0 0 C2.8203125 -0.29296875 2.8203125 -0.29296875 6.125 -0.1875 C7.76855469 -0.14689453 7.76855469 -0.14689453 9.4453125 -0.10546875 C10.28835937 -0.07066406 11.13140625 -0.03585938 12 0 C11.01 1.485 11.01 1.485 10 3 C7.1796875 3.29296875 7.1796875 3.29296875 3.875 3.1875 C2.23144531 3.14689453 2.23144531 3.14689453 0.5546875 3.10546875 C-0.28835937 3.07066406 -1.13140625 3.03585938 -2 3 C-1.34 2.01 -0.68 1.02 0 0 Z " fill="#104875" transform="translate(218,163)"/>
<path d="M0 0 C0.66 0 1.32 0 2 0 C1.5247412 1.64696604 1.04468109 3.29254728 0.5625 4.9375 C0.29566406 5.85402344 0.02882812 6.77054688 -0.24609375 7.71484375 C-1 10 -1 10 -2 11 C-3.51928038 11.07179964 -5.04167482 11.08392007 -6.5625 11.0625 C-7.38878906 11.05347656 -8.21507812 11.04445312 -9.06640625 11.03515625 C-9.70449219 11.02355469 -10.34257812 11.01195312 -11 11 C-7.91190305 9.23537317 -6.76687864 9 -3 9 C-2.67 7.35 -2.34 5.7 -2 4 C-1.34 4 -0.68 4 0 4 C0 2.68 0 1.36 0 0 Z " fill="#A98233" transform="translate(255,145)"/>
<path d="M0 0 C0.33 0.66 0.66 1.32 1 2 C1.66 2 2.32 2 3 2 C3.433125 3.2065625 3.433125 3.2065625 3.875 4.4375 C4.73262568 7.1326468 4.73262568 7.1326468 7 8 C7 8.99 7 9.98 7 11 C7.66 11 8.32 11 9 11 C9 11.66 9 12.32 9 13 C8.01 13.33 7.02 13.66 6 14 C4 11 4 11 4 8 C3.34 8 2.68 8 2 8 C0.23537317 4.91190305 0 3.76687864 0 0 Z " fill="#BD8D32" transform="translate(61,130)"/>
<path d="M0 0 C0.33 0.99 0.66 1.98 1 3 C1.66 3.33 2.32 3.66 3 4 C2.360625 4.886875 1.72125 5.77375 1.0625 6.6875 C-0.80829757 9.69211428 -1.59423966 11.5510371 -2 15 C-2.99 14.67 -3.98 14.34 -5 14 C-4.54636829 12.41531323 -4.08688548 10.83230076 -3.625 9.25 C-3.36976563 8.36828125 -3.11453125 7.4865625 -2.8515625 6.578125 C-2.0790066 4.23919428 -1.16374324 2.16557438 0 0 Z " fill="#BD9033" transform="translate(242,129)"/>
<path d="M0 0 C0.33 0 0.66 0 1 0 C1.3690205 9.41002278 1.3690205 9.41002278 -1 14 C-1.66 14 -2.32 14 -3 14 C-3.33 15.65 -3.66 17.3 -4 19 C-5.3609623 16.2780754 -4.70366248 14.8168043 -4.0625 11.875 C-3.86785156 10.96492188 -3.67320312 10.05484375 -3.47265625 9.1171875 C-3.31667969 8.41851562 -3.16070312 7.71984375 -3 7 C-2.01 7 -1.02 7 0 7 C0 4.69 0 2.38 0 0 Z " fill="#AF8C35" transform="translate(287,64)"/>
<path d="M0 0 C0.99 0.33 1.98 0.66 3 1 C4.46845421 6.47332932 3.44038726 9.11922548 1 14 C0 11 0 11 0.5625 8.9375 C0.7790625 7.9784375 0.7790625 7.9784375 1 7 C0.34 6.34 -0.32 5.68 -1 5 C-0.625 2.375 -0.625 2.375 0 0 Z " fill="#D69B28" transform="translate(134,111)"/>
<path d="M0 0 C0.66 0.33 1.32 0.66 2 1 C2 1.99 2 2.98 2 4 C0.35 4 -1.3 4 -3 4 C-3 4.66 -3 5.32 -3 6 C-4.65 6 -6.3 6 -8 6 C-8 6.66 -8 7.32 -8 8 C-9.32 7.67 -10.64 7.34 -12 7 C-10.04754815 5.80285445 -8.08785003 4.61751926 -6.125 3.4375 C-5.03445312 2.77621094 -3.94390625 2.11492188 -2.8203125 1.43359375 C-1.88960937 0.96050781 -0.95890625 0.48742188 0 0 Z " fill="#BE8E32" transform="translate(110,50)"/>
<path d="M0 0 C9.59453303 2.89066059 9.59453303 2.89066059 13 6 C11.02 6.99 11.02 6.99 9 8 C9 7.34 9 6.68 9 6 C7.88625 5.7525 6.7725 5.505 5.625 5.25 C2 4 2 4 0.7734375 1.921875 C0.51820313 1.28765625 0.26296875 0.6534375 0 0 Z " fill="#C49A36" transform="translate(228,38)"/>
<path d="M0 0 C0 0.33 0 0.66 0 1 C-1.65 1 -3.3 1 -5 1 C-5.04125 1.7425 -5.0825 2.485 -5.125 3.25 C-6.34857383 7.09551776 -8.59346582 8.04305483 -12 10 C-11.67 8.02 -11.34 6.04 -11 4 C-10.34 4 -9.68 4 -9 4 C-9 3.34 -9 2.68 -9 2 C-5.5647952 -0.29013653 -4.014669 -0.17842973 0 0 Z " fill="#AC8828" transform="translate(165,12)"/>
<path d="M0 0 C0.33 0 0.66 0 1 0 C1 2.97 1 5.94 1 9 C1.66 9.33 2.32 9.66 3 10 C1.35 10 -0.3 10 -2 10 C-3.34920635 4.6031746 -3.34920635 4.6031746 -1.625 1.625 C-1.08875 1.08875 -0.5525 0.5525 0 0 Z " fill="#E4A22D" transform="translate(107,144)"/>
<path d="M0 0 C5.32187227 1.21376034 10.03906272 2.72623708 15 5 C14.01 5.66 13.02 6.32 12 7 C12 6.34 12 5.68 12 5 C8.7 4.67 5.4 4.34 2 4 C2 3.34 2 2.68 2 2 C1.34 2 0.68 2 0 2 C0 1.34 0 0.68 0 0 Z " fill="#BE9633" transform="translate(212,32)"/>
<path d="M0 0 C0.33 0 0.66 0 1 0 C1 5.94 1 11.88 1 18 C0.01 17.67 -0.98 17.34 -2 17 C-1.855625 15.865625 -1.71125 14.73125 -1.5625 13.5625 C-0.99698633 9.04646944 -0.49225191 4.52452819 0 0 Z " fill="#0D3B80" transform="translate(25,155)"/>
<path d="M0 0 C0.66 0.33 1.32 0.66 2 1 C2 3.31 2 5.62 2 8 C-0.97 7.505 -0.97 7.505 -4 7 C-2.92598892 4.08482708 -2.22189824 2.22189824 0 0 Z " fill="#BE9731" transform="translate(184,96)"/>
<path d="M0 0 C3 2 3 2 4 5 C5.66270287 6.33827304 7.32916181 7.67189785 9 9 C9 9.66 9 10.32 9 11 C6.1875 10.4375 6.1875 10.4375 3 9 C0 3.4 0 3.4 0 0 Z " fill="#E6B23F" transform="translate(245,83)"/>
<path d="M0 0 C2.04136395 -0.05451714 4.08315856 -0.09302485 6.125 -0.125 C7.83042969 -0.15980469 7.83042969 -0.15980469 9.5703125 -0.1953125 C13.05757767 0.00327891 15.7553862 0.7475199 19 2 C19 2.33 19 2.66 19 3 C12.56688704 3.09507063 6.34241995 3.15316726 0 2 C0 1.34 0 0.68 0 0 Z " fill="#234B89" transform="translate(250,216)"/>
<path d="M0 0 C5.99291003 0.41330414 9.25036599 1.31903365 14 5 C13.67 5.66 13.34 6.32 13 7 C12.01 6.319375 12.01 6.319375 11 5.625 C7.34793046 3.64679567 4.04947443 2.89225708 0 2 C0 1.34 0 0.68 0 0 Z " fill="#265787" transform="translate(292,127)"/>
<path d="M0 0 C0 0.99 0 1.98 0 3 C-5.445 4.485 -5.445 4.485 -11 6 C-11 5.34 -11 4.68 -11 4 C-9.73308493 3.32591692 -8.46129251 2.66099503 -7.1875 2 C-6.47980469 1.62875 -5.77210937 1.2575 -5.04296875 0.875 C-3 0 -3 0 0 0 Z " fill="#184074" transform="translate(46,127)"/>
<path d="M0 0 C-2.85478326 1.90318884 -4.41941308 2.4619099 -7.6875 3.125 C-8.49574219 3.29257813 -9.30398437 3.46015625 -10.13671875 3.6328125 C-10.75160156 3.75398437 -11.36648437 3.87515625 -12 4 C-12.33 3.34 -12.66 2.68 -13 2 C-8.22169095 -0.91360308 -5.44893869 -1.19876651 0 0 Z " fill="#133A71" transform="translate(238,207)"/>
<path d="M0 0 C1 3 1 3 0.0625 5.1875 C-0.4634375 6.0846875 -0.4634375 6.0846875 -1 7 C-1.99 7 -2.98 7 -4 7 C-4.33 7.66 -4.66 8.32 -5 9 C-5.33 7.68 -5.66 6.36 -6 5 C-5.01 4.67 -4.02 4.34 -3 4 C-3 3.01 -3 2.02 -3 1 C-2.01 0.67 -1.02 0.34 0 0 Z " fill="#DB9B2C" transform="translate(259,138)"/>
<path d="M0 0 C4.29 0 8.58 0 13 0 C12.67 0.99 12.34 1.98 12 3 C9.69 3.33 7.38 3.66 5 4 C5 3.34 5 2.68 5 2 C3.35 1.67 1.7 1.34 0 1 C0 0.67 0 0.34 0 0 Z " fill="#245E95" transform="translate(126,354)"/>
<path d="M0 0 C5.12583611 -0.10251672 9.94997778 -0.03590199 15 1 C15 1.33 15 1.66 15 2 C7.08 2.495 7.08 2.495 -1 3 C-0.67 2.01 -0.34 1.02 0 0 Z " fill="#134281" transform="translate(83,354)"/>
<path d="M0 0 C2.49731199 1.248656 2.96074736 2.36564376 4.25 4.8125 C4.62640625 5.49957031 5.0028125 6.18664062 5.390625 6.89453125 C6 9 6 9 5.109375 11.26171875 C4.56023437 12.12216797 4.56023437 12.12216797 4 13 C3.67 11.02 3.34 9.04 3 7 C2.01 6.67 1.02 6.34 0 6 C0 4.02 0 2.04 0 0 Z " fill="#C08F3F" transform="translate(84,134)"/>
<path d="M0 0 C-0.66 3.63 -1.32 7.26 -2 11 C-2.99 10.67 -3.98 10.34 -5 10 C-4.88637738 8.5199159 -4.75877092 7.04089926 -4.625 5.5625 C-4.55539063 4.73878906 -4.48578125 3.91507813 -4.4140625 3.06640625 C-4.27742187 2.38449219 -4.14078125 1.70257813 -4 1 C-2 0 -2 0 0 0 Z " fill="#F4BA43" transform="translate(143,137)"/>
<path d="M0 0 C2.84550012 0.66010476 5.52325999 1.51724966 8.25 2.5625 C8.95640625 2.83191406 9.6628125 3.10132813 10.390625 3.37890625 C10.92171875 3.58386719 11.4528125 3.78882813 12 4 C11.67 4.66 11.34 5.32 11 6 C10.113125 5.67 9.22625 5.34 8.3125 5 C5.29076653 4.08777857 3.11626294 3.81669042 0 4 C0 2.68 0 1.36 0 0 Z " fill="#C09534" transform="translate(274,57)"/>
<path d="M0 0 C0.33 0 0.66 0 1 0 C0.88557539 1.60495567 0.75805306 3.20898119 0.625 4.8125 C0.55539063 5.70582031 0.48578125 6.59914063 0.4140625 7.51953125 C0 10 0 10 -2 13 C-2.66 13 -3.32 13 -4 13 C-3.52140759 11.39566191 -3.04210442 9.79153584 -2.5625 8.1875 C-2.29566406 7.29417969 -2.02882812 6.40085937 -1.75390625 5.48046875 C-1.19612127 3.64526945 -0.60655425 1.81966274 0 0 Z " fill="#C09830" transform="translate(143,46)"/>
<path d="M0 0 C0.66 0 1.32 0 2 0 C3.32 2.64 4.64 5.28 6 8 C5.01 8 4.02 8 3 8 C3 7.34 3 6.68 3 6 C2.01 6 1.02 6 0 6 C0 4.02 0 2.04 0 0 Z " fill="#123C75" transform="translate(47,127)"/>
<path d="M0 0 C-1.62170379 1.00533667 -3.24747237 2.00411907 -4.875 3 C-6.23238281 3.8353125 -6.23238281 3.8353125 -7.6171875 4.6875 C-10 6 -10 6 -12 6 C-12 5.01 -12 4.02 -12 3 C-10.35 2.67 -8.7 2.34 -7 2 C-7 1.34 -7 0.68 -7 0 C-3.86650268 -1.04449911 -3.01031744 -0.93423645 0 0 Z " fill="#B08731" transform="translate(100,80)"/>
<path d="M0 0 C0.33 0 0.66 0 1 0 C1 1.98 1 3.96 1 6 C3.64 6.33 6.28 6.66 9 7 C9 7.33 9 7.66 9 8 C5.7 8.33 2.4 8.66 -1 9 C-0.67 6.03 -0.34 3.06 0 0 Z " fill="#9D762E" transform="translate(234,148)"/>
<path d="M0 0 C2.33333823 2.12121657 3.9148886 4.01594365 5 7 C4.625 9.25 4.625 9.25 4 11 C2.35 11 0.7 11 -1 11 C0.32 10.67 1.64 10.34 3 10 C2.690625 9.278125 2.38125 8.55625 2.0625 7.8125 C1.07439461 5.19692691 0.4712246 2.74881018 0 0 Z " fill="#9F802C" transform="translate(90,145)"/>
<path d="M0 0 C1.18771723 3.42943519 0.80226223 5.37784675 -0.4375 8.75 C-0.86869141 9.94882813 -0.86869141 9.94882813 -1.30859375 11.171875 C-1.53675781 11.77515625 -1.76492188 12.3784375 -2 13 C-2.66 13 -3.32 13 -4 13 C-3.50269348 8.02693484 -2.44697666 4.36200187 0 0 Z " fill="#0F4076" transform="translate(274,128)"/>
<path d="M0 0 C0.33 0.66 0.66 1.32 1 2 C3.02463255 2.65213292 3.02463255 2.65213292 5 3 C3.35 4.65 1.7 6.3 0 8 C-0.66 7.67 -1.32 7.34 -2 7 C-1.814375 6.38125 -1.62875 5.7625 -1.4375 5.125 C-0.76313824 2.95839822 -0.76313824 2.95839822 -2 1 C-1.34 0.67 -0.68 0.34 0 0 Z " fill="#0D539F" transform="translate(34,132)"/>
<path d="M0 0 C0.99 0.33 1.98 0.66 3 1 C3 1.66 3 2.32 3 3 C6.3 3.99 9.6 4.98 13 6 C13 6.33 13 6.66 13 7 C10.69 7 8.38 7 6 7 C6 6.34 6 5.68 6 5 C4.02 4.34 2.04 3.68 0 3 C0 2.01 0 1.02 0 0 Z " fill="#1B4070" transform="translate(236,258)"/>
<path d="M0 0 C0.66 0.33 1.32 0.66 2 1 C1.45144652 5.571279 0.58255197 9.67435795 -1 14 C-1.33 14 -1.66 14 -2 14 C-2.3690205 4.58997722 -2.3690205 4.58997722 0 0 Z " fill="#153A77" transform="translate(26,141)"/>
<path d="M0 0 C0.66 0.66 1.32 1.32 2 2 C1.61233695 5.58588324 0.41433748 8.69987921 -1 12 C-1.33 12 -1.66 12 -2 12 C-2 9.36 -2 6.72 -2 4 C-1.34 4 -0.68 4 0 4 C0 2.68 0 1.36 0 0 Z " fill="#BC8F30" transform="translate(132,124)"/>
<path d="M0 0 C0.33 1.32 0.66 2.64 1 4 C1.66 4 2.32 4 3 4 C3 4.66 3 5.32 3 6 C3.66 6 4.32 6 5 6 C4.67 7.65 4.34 9.3 4 11 C1.47650757 7.87567603 -0.27256146 4.61939504 -2 1 C-1.34 0.67 -0.68 0.34 0 0 Z " fill="#BA9128" transform="translate(45,99)"/>
<path d="M0 0 C1.32 0 2.64 0 4 0 C4 2.97 4 5.94 4 9 C3.01 9.495 3.01 9.495 2 10 C0.875 4.375 0.875 4.375 2 1 C1.34 0.67 0.68 0.34 0 0 Z " fill="#DDA831" transform="translate(242,65)"/>
<path d="M0 0 C-0.33 0.99 -0.66 1.98 -1 3 C-2.98 3.33 -4.96 3.66 -7 4 C-7 3.01 -7 2.02 -7 1 C-3.375 -1.125 -3.375 -1.125 0 0 Z " fill="#154D89" transform="translate(257,262)"/>
<path d="M0 0 C0.99 0 1.98 0 3 0 C2.47535095 4.61691161 1.92509086 6.09987886 -1 10 C-0.67 6.7 -0.34 3.4 0 0 Z " fill="#1A4C88" transform="translate(206,224)"/>
<path d="M0 0 C1.32 0.33 2.64 0.66 4 1 C4 1.99 4 2.98 4 4 C4.66 4 5.32 4 6 4 C6 4.66 6 5.32 6 6 C4.35 6.33 2.7 6.66 1 7 C0.67 4.69 0.34 2.38 0 0 Z " fill="#EAAB31" transform="translate(208,30)"/>
<path d="M0 0 C-0.66 0 -1.32 0 -2 0 C-2.28875 0.639375 -2.5775 1.27875 -2.875 1.9375 C-4 4 -4 4 -6 5 C-6 4.34 -6 3.68 -6 3 C-6.66 3 -7.32 3 -8 3 C-8.33 3.66 -8.66 4.32 -9 5 C-9 4.01 -9 3.02 -9 2 C-3.375 -1.125 -3.375 -1.125 0 0 Z " fill="#245B8B" transform="translate(308,345)"/>
<path d="M0 0 C1.23593891 3.70781672 0.5678132 4.67510253 -0.9375 8.1875 C-1.31777344 9.08855469 -1.69804687 9.98960937 -2.08984375 10.91796875 C-2.54037109 11.94857422 -2.54037109 11.94857422 -3 13 C-4.09658936 9.71023192 -3.79953138 8.28696233 -3 5 C-2.34 5 -1.68 5 -1 5 C-0.67 3.35 -0.34 1.7 0 0 Z " fill="#1E416E" transform="translate(314,327)"/>
<path d="M0 0 C0.99 0.495 0.99 0.495 2 1 C2 1.66 2 2.32 2 3 C2.99 3.33 3.98 3.66 5 4 C6.1875 7.5625 6.1875 7.5625 7 11 C6.34 11 5.68 11 5 11 C4.16151196 9.54462432 3.32936066 8.08559627 2.5 6.625 C1.80390625 5.40683594 1.80390625 5.40683594 1.09375 4.1640625 C0 2 0 2 0 0 Z " fill="#143B6E" transform="translate(215,261)"/>
<path d="M0 0 C1.43088528 2.86177057 0.59991697 4.93375773 0 8 C-0.66 8 -1.32 8 -2 8 C-2.33 8.66 -2.66 9.32 -3 10 C-2.88637738 8.5199159 -2.75877092 7.04089926 -2.625 5.5625 C-2.55539063 4.73878906 -2.48578125 3.91507813 -2.4140625 3.06640625 C-2.27742187 2.38449219 -2.14078125 1.70257813 -2 1 C-1.34 0.67 -0.68 0.34 0 0 Z " fill="#D6A338" transform="translate(238,142)"/>
<path d="M0 0 C2.625 0.375 2.625 0.375 5 1 C5 1.66 5 2.32 5 3 C5.99 3.33 6.98 3.66 8 4 C6.375 4.6875 6.375 4.6875 4 5 C0.75 3.5625 0.75 3.5625 -2 2 C-1.34 1.34 -0.68 0.68 0 0 Z " fill="#C59539" transform="translate(189,103)"/>
<path d="M0 0 C0.66 0.99 1.32 1.98 2 3 C-0.96687001 4.64826111 -3.65626525 5.44271087 -7 6 C-6 3 -6 3 -2.9375 1.3125 C-1.968125 0.879375 -0.99875 0.44625 0 0 Z " fill="#CE9C37" transform="translate(97,58)"/>
<path d="M0 0 C6.0546875 -0.1953125 6.0546875 -0.1953125 8 0 C8.66 0.66 9.32 1.32 10 2 C8.54182203 2.16802051 7.0834516 2.33437143 5.625 2.5 C4.40683594 2.63921875 4.40683594 2.63921875 3.1640625 2.78125 C1 3 1 3 -1 3 C-0.67 2.01 -0.34 1.02 0 0 Z " fill="#C29637" transform="translate(160,57)"/>
<path d="M0 0 C0.33 0 0.66 0 1 0 C1.33 2.97 1.66 5.94 2 9 C0.35 9.33 -1.3 9.66 -3 10 C-2.01 6.7 -1.02 3.4 0 0 Z " fill="#C29631" transform="translate(152,23)"/>
<path d="M0 0 C3.63 0 7.26 0 11 0 C11 0.33 11 0.66 11 1 C6.73383684 2.13764351 3.43513689 3 -1 3 C-0.67 2.01 -0.34 1.02 0 0 Z " fill="#143C6E" transform="translate(238,217)"/>
<path d="M0 0 C3.63 0 7.26 0 11 0 C10.67 0.99 10.34 1.98 10 3 C2.25 3.125 2.25 3.125 0 2 C0 1.34 0 0.68 0 0 Z " fill="#3E6D95" transform="translate(206,163)"/>
<path d="M0 0 C2.15377564 2.62198774 3.40072174 4.64404172 4 8 C2.68 8 1.36 8 0 8 C-1.125 2.25 -1.125 2.25 0 0 Z " fill="#C9952E" transform="translate(76,118)"/>
<path d="M0 0 C0.33 0.99 0.66 1.98 1 3 C-1 6 -1 6 -3.625 6.6875 C-4.800625 6.8421875 -4.800625 6.8421875 -6 7 C-5.67 6.01 -5.34 5.02 -5 4 C-4.34 4 -3.68 4 -3 4 C-3 3.34 -3 2.68 -3 2 C-2.01 1.34 -1.02 0.68 0 0 Z " fill="#C78F3D" transform="translate(200,79)"/>
<path d="M0 0 C1.98 0 3.96 0 6 0 C6 0.66 6 1.32 6 2 C7.32 2.33 8.64 2.66 10 3 C4.58461538 4.23076923 4.58461538 4.23076923 1.625 3.0625 C1.08875 2.711875 0.5525 2.36125 0 2 C0 1.34 0 0.68 0 0 Z " fill="#CD9434" transform="translate(227,58)"/>
<path d="M0 0 C0.66 0.33 1.32 0.66 2 1 C2 2.98 2 4.96 2 7 C1.01 7.33 0.02 7.66 -1 8 C-1.33 6.02 -1.66 4.04 -2 2 C-1.34 2 -0.68 2 0 2 C0 1.34 0 0.68 0 0 Z " fill="#0A3A73" transform="translate(314,317)"/>
<path d="M0 0 C0.99 0 1.98 0 3 0 C3 0.66 3 1.32 3 2 C3.66 2 4.32 2 5 2 C4.67 5.3 4.34 8.6 4 12 C3.67 12 3.34 12 3 12 C2.86722656 11.30132812 2.73445313 10.60265625 2.59765625 9.8828125 C2.42105469 8.97273437 2.24445313 8.06265625 2.0625 7.125 C1.88847656 6.22007812 1.71445312 5.31515625 1.53515625 4.3828125 C1.10036299 2.00043683 1.10036299 2.00043683 0 0 Z " fill="#154678" transform="translate(293,148)"/>
<path d="M0 0 C1.32 0.33 2.64 0.66 4 1 C4.33 2.98 4.66 4.96 5 7 C4.01 7.495 4.01 7.495 3 8 C2.67 6.35 2.34 4.7 2 3 C1.34 3 0.68 3 0 3 C0 2.01 0 1.02 0 0 Z " fill="#C59935" transform="translate(54,118)"/>
<path d="M0 0 C6.52307692 0.49230769 6.52307692 0.49230769 8.9375 3.0625 C9.288125 3.701875 9.63875 4.34125 10 5 C8.35 4.67 6.7 4.34 5 4 C5 3.34 5 2.68 5 2 C3.35 2 1.7 2 0 2 C0 1.34 0 0.68 0 0 Z " fill="#C19235" transform="translate(193,115)"/>
<path d="M0 0 C0.99 0 1.98 0 3 0 C2.75 2.875 2.75 2.875 2 6 C-0.0625 7.375 -0.0625 7.375 -2 8 C-1.34 5.36 -0.68 2.72 0 0 Z " fill="#CA9F34" transform="translate(146,38)"/>
<path d="M0 0 C1.27514492 3.82543475 0.52740413 5.33423008 -1 9 C-2.578125 10.6875 -2.578125 10.6875 -4 12 C-3.52309796 10.37433394 -3.04340334 8.74948689 -2.5625 7.125 C-2.29566406 6.22007813 -2.02882812 5.31515625 -1.75390625 4.3828125 C-1 2 -1 2 0 0 Z " fill="#BA9438" transform="translate(247,117)"/>
<path d="M0 0 C0.66 0.33 1.32 0.66 2 1 C1.67 1.99 1.34 2.98 1 4 C0.01 4 -0.98 4 -2 4 C-2.33 4.99 -2.66 5.98 -3 7 C-3.66 6.67 -4.32 6.34 -5 6 C-5 5.34 -5 4.68 -5 4 C-4.34 4 -3.68 4 -3 4 C-3 3.34 -3 2.68 -3 2 C-2.01 1.34 -1.02 0.68 0 0 Z " fill="#B58B31" transform="translate(154,113)"/>
<path d="M0 0 C2.5 1.375 2.5 1.375 5 3 C5 3.66 5 4.32 5 5 C5.66 5.33 6.32 5.66 7 6 C4.07120629 5.37240135 1.63904371 4.41377341 -1 3 C-0.67 2.01 -0.34 1.02 0 0 Z " fill="#164170" transform="translate(39,348)"/>
<path d="M0 0 C2.97 0.495 2.97 0.495 6 1 C6.33 2.65 6.66 4.3 7 6 C5.83054208 5.19152271 4.66449539 4.37810888 3.5 3.5625 C2.8503125 3.11003906 2.200625 2.65757812 1.53125 2.19140625 C1.0259375 1.79824219 0.520625 1.40507812 0 1 C0 0.67 0 0.34 0 0 Z " fill="#183A76" transform="translate(254,238)"/>
<path d="M0 0 C0.99 0.66 1.98 1.32 3 2 C3 2.66 3 3.32 3 4 C1.68 4 0.36 4 -1 4 C-1.33 4.66 -1.66 5.32 -2 6 C-2 5.34 -2 4.68 -2 4 C-2.66 3.67 -3.32 3.34 -4 3 C-2.68 2.01 -1.36 1.02 0 0 Z " fill="#EEB543" transform="translate(90,151)"/>
<path d="M0 0 C0.99 0.33 1.98 0.66 3 1 C2.25 5.75 2.25 5.75 0 8 C-0.98120464 4.94736336 -0.98120464 3.05263664 0 0 Z " fill="#AE862D" transform="translate(260,130)"/>
<path d="M0 0 C0.66 0 1.32 0 2 0 C1.5020163 3.73487777 1.12508244 5.81237635 -1 9 C-1.09765625 2.84765625 -1.09765625 2.84765625 -1 1 C-0.67 0.67 -0.34 0.34 0 0 Z " fill="#B08732" transform="translate(148,84)"/>
<path d="M0 0 C0.66 0.66 1.32 1.32 2 2 C1.64644564 4.26274788 1.02455574 5.95088852 0 8 C-0.66 8 -1.32 8 -2 8 C-1.47731534 5.23723823 -0.89130413 2.6739124 0 0 Z " fill="#C69C34" transform="translate(138,60)"/>
<path d="M0 0 C1.45922693 0.11409593 2.91740598 0.24165544 4.375 0.375 C5.59316406 0.47941406 5.59316406 0.47941406 6.8359375 0.5859375 C9 1 9 1 11 3 C7.59068103 4.13643966 6.99664544 3.86747764 3.8125 2.5625 C3.09707031 2.27503906 2.38164062 1.98757812 1.64453125 1.69140625 C1.10183594 1.46324219 0.55914062 1.23507813 0 1 C0 0.67 0 0.34 0 0 Z " fill="#B98D38" transform="translate(212,53)"/>
<path d="M0 0 C3.3 0.99 6.6 1.98 10 3 C10 3.33 10 3.66 10 4 C7.36 4 4.72 4 2 4 C1.34 2.68 0.68 1.36 0 0 Z " fill="#A6822D" transform="translate(188,22)"/>
<path d="M0 0 C3.82097239 0.53069061 6.06171403 1.49701566 9 4 C5.625 3.6875 5.625 3.6875 2 3 C1.34 2.01 0.68 1.02 0 0 Z " fill="#104678" transform="translate(227,277)"/>
<path d="M0 0 C0.66 0 1.32 0 2 0 C1.67 2.31 1.34 4.62 1 7 C0.01 7.33 -0.98 7.66 -2 8 C-1.34 5.36 -0.68 2.72 0 0 Z " fill="#143D73" transform="translate(261,251)"/>
<path d="M0 0 C0 0.66 0 1.32 0 2 C-2.64 2 -5.28 2 -8 2 C-6.14210462 -1.71579076 -3.44525918 -1.06921837 0 0 Z " fill="#113A74" transform="translate(278,164)"/>
<path d="M0 0 C4.455 0.99 4.455 0.99 9 2 C9 2.66 9 3.32 9 4 C6.03 4 3.06 4 0 4 C0 2.68 0 1.36 0 0 Z " fill="#EFB037" transform="translate(187,112)"/>
<path d="M0 0 C0.66 0.33 1.32 0.66 2 1 C1.67 3.31 1.34 5.62 1 8 C0.34 8 -0.32 8 -1 8 C-0.67 5.36 -0.34 2.72 0 0 Z " fill="#BC9333" transform="translate(82,104)"/>
</svg>
